<?xml version="1.0" encoding="utf-8"?>
<!-- Generator: Adobe Illustrator 25.2.1, SVG Export Plug-In . SVG Version: 6.00 Build 0)  -->
<svg version="1.1" id="Layer_1" xmlns="http://www.w3.org/2000/svg" xmlns:xlink="http://www.w3.org/1999/xlink" x="0px" y="0px"
	 viewBox="0 0 195.8 59" style="enable-background:new 0 0 195.8 59;" xml:space="preserve">
<style type="text/css">
	.st0{fill:#041331;}
	.st1{fill:#0377C7;}
</style>
<g id="Group_471" transform="translate(4312.989 -1190.281)">
	<path id="Path_16" class="st0" d="M-4269.3,1217.4c0,0.4-0.2,0.9-0.5,1.1s-0.7,0.4-1.2,0.4c-0.3,0-0.5-0.1-0.8-0.2
		s-0.5-0.2-0.7-0.4c-0.2-0.2-0.4-0.4-0.5-0.6s-0.2-0.5-0.2-0.7c0-0.4,0.2-0.9,0.5-1.1c0.4-0.2,0.8-0.3,1.2-0.3
		c0.5,0,1.1,0.2,1.5,0.5C-4269.6,1216.3-4269.3,1216.8-4269.3,1217.4z"/>
	<g id="Group_2" transform="translate(-4312.989 1190.781)">
		<path id="Path_17" class="st0" d="M17.7,20.2c-0.2-0.5-0.6-0.9-1-1.2c-0.6-0.4-1.5-0.5-2.2-0.3v-2.6c0-0.3-0.2-0.5-0.5-0.5l0,0
			c-0.3,0-0.5,0.2-0.5,0.5v3.1c0,0,0,0-0.1,0c-0.6,0.4-1.1,0.9-1.5,1.5c-0.1,0.1-0.1,0.2-0.2,0.3V1h1.8v11.2c0,0.3,0.2,0.5,0.5,0.5
			l0,0c0.3,0,0.5-0.2,0.5-0.5V8.8h7.7c0.1,0,0.3-0.1,0.3-0.1l2.6-2.6c0.2-0.2,0.2-0.5,0-0.7l0,0l0,0l-2.6-2.6
			c-0.1-0.1-0.2-0.1-0.3-0.1h-7.7V1c0-0.5-0.4-1-1-1h-1.8c-0.5,0-1,0.4-1,1v8.6H3.1C3,9.6,2.8,9.7,2.8,9.7l-2.6,2.6
			C0,12.5,0,12.8,0.2,13l0,0l0,0l2.6,2.6c0.1,0.1,0.2,0.1,0.3,0.1h7.7v7.5c-0.1,0.4-0.2,0.8-0.3,1.2c-0.1,0.6-0.1,1.3-0.1,1.9
			c0,0.3,0,0.6,0.1,1c0,0.4,0.1,0.7,0.2,1.1c0.1,0.4,0.2,0.7,0.3,1.1c0.1,0.3,0.3,0.6,0.5,0.9c0.1,0.2,0.2,0.3,0.4,0.4l2.4-1
			c-0.5-0.7-0.9-1.4-1.1-2.2C13,26.7,13,25.7,13,24.8c0,1,0.3,2,0.7,2.9c0.3,0.5,0.6,0.9,1,1.3c0.3,0.3,0.8,0.4,1.2,0.4
			c0.6-0.1,1.2-0.4,1.6-0.9c0.5-0.6,0.9-1.3,1-2.1c0.3-1.5,0.3-3,0-4.4C18.2,21.3,18,20.8,17.7,20.2z M14.5,3.7H22l2.1,2.1l-2.1,2
			h-7.5V3.7z M10.7,14.7H3.3l-2.1-2.1l2.1-2.1h7.5L10.7,14.7z M16.3,25.1c0,0.3-0.1,0.6-0.2,0.8c-0.1,0.2-0.1,0.4-0.3,0.6
			c-0.1,0.1-0.2,0.2-0.4,0.3c-0.2,0-0.3-0.1-0.4-0.3c-0.1-0.2-0.2-0.5-0.3-0.7c-0.1-0.3-0.1-0.7-0.2-1c0-0.4-0.1-0.8-0.1-1.1
			c0-0.1,0-0.3,0-0.4s0-0.3,0-0.4c0-0.4,0-0.8,0.1-1.2c0-0.3,0.3-0.5,0.6-0.5c0.2,0,0.4,0.1,0.5,0.2c0.2,0.2,0.3,0.4,0.4,0.7
			c0.1,0.3,0.2,0.6,0.2,1s0.1,0.7,0.1,1.1C16.4,24.5,16.4,24.8,16.3,25.1L16.3,25.1z"/>
		<path id="Path_18" class="st0" d="M38.1,23c0-0.5-0.1-1-0.3-1.5s-0.4-0.9-0.8-1.2c-2-0.1-4,0-6,0.3l0.1-1.6c2.6-0.5,4.1-0.8,4.5-1
			c0.3-0.1,0.6-0.2,1-0.4c0.3-0.1,0.5-0.2,0.6-0.3c0.1-0.1,0.1-0.1,0.1-0.1c-0.1-0.2-0.1-0.4-0.2-0.6c-0.1-0.3-0.3-0.6-0.4-0.9
			c-0.2-0.4-0.3-0.6-0.5-0.9l-0.3-0.5c-0.8,0.4-1.4,0.7-1.8,0.9c-0.4,0.2-1,0.5-1.9,0.9c-1.2,0.3-2.4,0.4-3.6,0.3c0,0.7,0,1.3,0.1,2
			l0.4,4.1l2.7,0.2c1.1-0.1,2.2-0.1,3.4-0.1c0.1,0.9,0.2,1.8,0.2,2.7c-4.3,0-6.6,0.1-7.1,0.1c-0.4,0-0.7,0-1,0h-1.5
			c0.1-0.4,0.2-0.8,0.3-1.2c0.1-0.7,0.1-1.3,0.1-2c0-0.5-0.1-1-0.2-1.5c-0.1-0.6-0.3-1.2-0.6-1.7c-0.2-0.5-0.6-0.9-1-1.2
			c-0.5-0.3-1-0.5-1.5-0.4c-0.5,0-0.9,0.1-1.3,0.4c-0.4,0.2-0.6,0.6-0.8,1c-0.2,0.4-0.4,0.9-0.5,1.4s-0.1,1.1-0.1,1.6
			c0,0.1,0,0.2,0,0.4c0,0.1,0,0.2,0,0.4c0.1,0.7,0.2,1.3,0.4,1.9c0.2,0.6,0.4,1.1,0.7,1.7c0.2,0.4,0.6,0.8,1,1.2
			c0.1,0.1,0.3,0.2,0.4,0.3l0,0c-0.2,0.4-0.4,0.7-0.6,1.1c-0.2,0.3-0.4,0.7-0.7,1s-0.4,0.6-0.6,0.9c0.3,0.1,0.5,0.1,0.8,0.1l0.6,0.1
			c0.4,0,0.7,0,0.9,0c0.2,0,0.3,0,0.5,0c0.3-0.5,0.6-1,0.8-1.5c0.2-0.5,0.4-1,0.6-1.5c0.1,0,0.2,0,0.3,0h1.2l0,0h1.7
			c0.3,0,0.6,0,0.9,0c-0.1,0,0.4,0,1.4,0c0.6,0,2.3,0,5.1,0c0.9,0,1.8,0,2.6,0C38.1,26,38.2,24.5,38.1,23z M23.6,23
			c0,0.2-0.1,0.5-0.1,0.7s-0.1,0.3-0.2,0.5c-0.1,0.1-0.1,0.2-0.3,0.2c-0.1,0-0.2-0.1-0.3-0.2c-0.1-0.2-0.2-0.4-0.2-0.6
			c-0.1-0.3-0.1-0.6-0.1-0.8c0-0.3,0-0.4,0-0.4c0-0.1,0-0.2,0-0.4s0-0.2,0-0.3c0-0.3,0-0.6,0.1-1c0.1-0.3,0.2-0.4,0.4-0.4
			c0.1,0,0.3,0.1,0.4,0.2c0.1,0.2,0.2,0.4,0.3,0.5c0.1,0.3,0.1,0.5,0.1,0.8c0,0.1,0,0.2,0,0.4C23.6,22.5,23.6,22.7,23.6,23L23.6,23z
			"/>
		<path id="Path_19" class="st0" d="M14,13.7c-0.3,0-0.5,0.2-0.5,0.5l0,0c0,0.3,0.2,0.5,0.5,0.5l0,0c0.3,0,0.5-0.2,0.5-0.5l0,0
			c0-0.1-0.1-0.3-0.1-0.3C14.3,13.8,14.1,13.7,14,13.7z"/>
		<path id="Path_20" class="st0" d="M21,5.2h-4.3c-0.3,0-0.5,0.2-0.5,0.5l0,0c0,0.3,0.2,0.5,0.5,0.5l0,0H21c0.3,0,0.5-0.2,0.5-0.5
			C21.4,5.4,21.2,5.2,21,5.2z"/>
		<path id="Path_21" class="st0" d="M4.2,13.1h4.3c0.3,0,0.5-0.2,0.5-0.5l0,0c0-0.3-0.2-0.5-0.5-0.5l0,0H4.2c-0.3,0-0.5,0.2-0.5,0.5
			l0,0C3.7,12.9,3.9,13.1,4.2,13.1L4.2,13.1z"/>
	</g>
	<g id="Group_472" transform="translate(-4297.014 1190.781)">
		<path id="Union_15" class="st1" d="M67.3,56.8c-1-0.7-1.6-1.9-1.6-3.2c-0.1-1.1,0.4-2.1,1.2-2.8c0.8-0.6,1.8-0.9,2.8-0.9
			c0.7,0,1.3,0.1,1.9,0.3s1.2,0.5,1.7,1c0.5,0.4,0.9,0.9,1.2,1.4c0.3,0.5,0.5,1.2,0.5,1.8c0.1,1.1-0.4,2.1-1.3,2.7
			c-0.9,0.6-1.9,0.8-2.9,0.8C69.6,58,68.3,57.6,67.3,56.8z M20.2,57.5c-0.6-0.2-1.2-0.5-1.7-0.9s-0.9-0.9-1.2-1.4
			c-0.3-0.5-0.5-1.2-0.5-1.8c-0.1-1.1,0.4-2.1,1.3-2.7c0.9-0.5,1.9-0.8,2.9-0.8c1.3,0,2.6,0.4,3.6,1.2c1,0.7,1.6,1.9,1.6,3.2
			c0.1,1.1-0.4,2.1-1.2,2.8c-0.8,0.6-1.8,0.9-2.8,0.9C21.4,57.9,20.8,57.8,20.2,57.5L20.2,57.5z M172.7,49.2
			c-1.4,0-6.2-0.1-14.4-0.3h-7.4l0,0h-0.1c-0.7,0-1.5,0-2.3,0c-1,0-3,0-6,0H141l-1.3,0.1l0,0h-2.8c-1,0.1-2.1,0.1-3.1,0
			c0.5,0-2.3,0-8.4-0.1h-0.6v-8.8c-0.5-1.4-0.6-6-0.3-13.7c-0.3,0.1-0.6,0.1-0.9,0.1c-0.5-0.1-0.9,0-1.4,0.1
			c-0.2,8.8-0.3,13.8-0.3,15c-0.1,1.2-0.2,2.4-0.4,3.7c-0.1,0.7-0.5,1.3-1.1,1.7c-0.7,0.5-1.4,0.8-2.2,1.1c-0.8,0.3-1.7,0.5-2.5,0.6
			s-4,0.2-9.4,0.2c-2.3,0.1-4.5-0.5-6.4-1.8c-1.7-1.2-3-2.7-3.9-4.6c-1.1-2.7-1.8-5.5-1.9-8.4c-0.3-3.8-0.5-9.8-0.5-18.1l9,0.9
			c-0.2,7.4-0.4,13-0.4,16.8c0,0.5,0.1,1.1,0.2,1.6c0.1,0.9,0.3,1.7,0.6,2.6c0.2,0.9,0.6,1.8,1.1,2.6c0.4,0.7,1.1,1.1,1.8,1.1
			c5.2,0,8-0.2,8.3-0.5s0.5-0.7,0.6-1.1c0.1-0.4,0.2-0.8,0.2-1.3c0-0.4,0-4.4-0.1-12.1c-0.3-0.1-0.7-0.1-1,0c-0.3,0-0.6,0-1,0
			c-0.2-1-0.4-2-0.4-3c-0.1-1.6-0.1-2.9-0.1-3.8c0-0.4,0-0.8,0-1.2c0-0.4,0.1-0.6,0.1-0.8c0.5-0.1,1-0.2,1.5-0.2
			c0.8-0.1,1.7-0.1,2.8-0.2c1,0,2.1-0.1,3.3-0.1h0.1v-0.1h6.3c2.4-0.3,4.8-0.3,7.2-0.2c0.1,7.2,0.2,11.5,0.3,13
			c-0.4,3.6-0.2,7.2,0.6,10.7c0.6,0,1.4,0,2.2,0h4.1h-1.2v0.1h2.9c0-0.3-0.1-3.6-0.1-9.8l-0.1-27.2c0-0.9,0-1.5,0-1.9h8.7
			c0.1,0.7,0.1,1.3,0.1,2s0,12.1,0,34.2v2.6h1.6l0,0h1.2c2.1,0,3.8,0,4.9,0c1,0,1.7,0,2.1,0c-0.4-1.1-0.7-2.3-1-3.5
			c-0.3-1.3-0.6-2.6-0.7-3.9c-0.2-1.2-0.3-2.3-0.4-3.3c0-0.3-0.1-0.7,0-1v-1c0-1.9,0.2-3.9,0.5-5.8s0.9-3.8,1.7-5.6
			c0.7-1.6,1.9-3,3.4-4c1.6-1,3.5-1.3,5.3-0.9c2,0.3,3.8,1.2,5.2,2.7c1.3,1.4,2.3,3.1,3,5c0.7,1.9,1.2,4,1.3,6l-8.7,3.9v-0.8
			c0-0.4-0.1-0.6-0.1-0.8c-0.1-0.6-0.2-1.4-0.4-2.2c-0.1-0.5-0.3-1-0.6-1.5c-0.2-0.3-0.6-0.5-0.9-0.4c-0.3,0.1-0.6,0.3-0.8,0.6
			c-0.3,0.5-0.4,1-0.5,1.5c-0.2,0.7-0.3,1.4-0.3,2.1c-0.1,0.8-0.1,1.6-0.1,2.4s0,1.7,0.1,2.5c0,0.8,0.2,1.5,0.3,2.3
			c0.4,1.2,0.9,2.4,1.6,3.6c0.9,1.7,4.2,2,10.1,0.9l0.6,8.4c-1.7,0.9-3.5,1.3-5.4,1.1C173.5,49.3,173.1,49.3,172.7,49.2L172.7,49.2z
			 M28.8,47c0.3,0-0.3,0-1.6,0h-0.3c-0.8,0-1.9-0.1-3.3-0.1c-2.2,0-6.8,0-13.8,0C7.1,47,4,47,0.6,47L0,38.9c0-1.3-0.1-3.2,0-5.8h9.3
			c0,1.7-0.1,3.5-0.1,5.7c8.2,0.1,14.1,0.1,17.7,0.1l0,0h3H27c0.5,0,0.9,0,1.2,0h1.1h2.3c0-0.3,0-3.6,0-9.8l-0.1-11
			c0-0.9,0-1.5,0-1.9h8.7c0.1,0.7,0.1,1.3,0.1,2s0,6.7,0,18v2.6H43h-1.2v0.1h2.9c0-0.3,0-3.6,0-9.8l-0.1-12.3c0-0.9,0-1.5,0-1.9h8.7
			c0.1,0.7,0.1,1.3,0.1,2s0,7.2,0,19.4v2.6H56c1,0,2.7,0,4.9,0.1c1.7,0,6.6-0.1,14.9-0.2c-0.2-9.9-0.4-15-0.6-15.2
			c-0.1-0.2-0.6-0.1-1.4,0.3s-1.5,0.8-2.2,1.4c-0.4,0.3-0.7,2.1-1,5.3h-9c0-0.3-0.1-0.6,0-0.9c-0.1-8.2,2.2-13.5,7-15.7
			c1.3-1.1,3.7-1.9,7.1-2.3c1.2,0.1,2.4,0.5,3.5,1c1.3,0.7,2.4,1.6,3.4,2.7c1.2,1.3,2.2,2.8,2.7,4.4c0.6,1.8,1,3.6,1.1,5.5
			c0.2,11.6-0.1,18.8-0.7,21.6c-2.8,0.1-5.9,0.1-9.2,0c-2.9,0-5.5,0-7.8,0C64.7,47,63,47,63.5,47c-1,0.1-2.1,0.1-3.1,0H53l0,0h-0.1
			c-0.7,0-1.5,0-2.3,0c-1,0-3,0-6,0h-1.4l-1.3,0.1V47h-1.2H40l0,0h-0.1c-0.6,0-3.2,0-7.9,0c-0.5,0-1,0-1.5,0
			C29.9,47,29.4,47,28.8,47z M47.3,7.6c-0.6-0.2-1.2-0.5-1.8-0.9c-0.5-0.4-0.9-0.9-1.2-1.4s-0.5-1.2-0.5-1.8
			c-0.1-1.1,0.4-2.1,1.3-2.7C46,0.3,47,0,48,0c1.3,0,2.6,0.4,3.6,1.2c1,0.7,1.6,1.9,1.6,3.2c0.1,1.1-0.4,2.1-1.2,2.8
			C51.2,7.7,50.2,8,49.2,8C48.6,8,47.9,7.9,47.3,7.6z"/>
	</g>
</g>
</svg>
