<?xml version="1.0" encoding="utf-8"?>
<!-- Generator: Adobe Illustrator 25.2.1, SVG Export Plug-In . SVG Version: 6.00 Build 0)  -->
<svg version="1.1" id="Layer_1" xmlns:svgjs="http://svgjs.com/svgjs"
	 xmlns="http://www.w3.org/2000/svg" xmlns:xlink="http://www.w3.org/1999/xlink" x="0px" y="0px" viewBox="0 0 512 512"
	 style="enable-background:new 0 0 512 512;" xml:space="preserve">
<style type="text/css">
	.st0{fill:#F2F2F2;}
	.st1{fill:#CCCCCC;}
	.st2{fill:#E6E6E6;}
	.st3{fill:#FFFFFF;}
	.st4{fill:#3C74CC;}
	.st5{opacity:0.2;enable-background:new    ;}
	.st6{fill:#3F3D56;}
	.st7{fill:#FFB7B7;}
	.st8{fill:#2F2E41;}
</style>
<g id="undraw_time_management_re_tk5w" transform="translate(0 -0.004)">
	<path id="Path_12809" class="st0" d="M473.3,394l23,3.6c7.8-9.4,13.1-20.6,15.6-32.5c-16.8,13.7-42.3,6.4-62.7,13.9
		c-12.8,4.8-22.8,15.3-27,28.3L411,419.4c20.6,8.1,43.7,6.9,63.2-3.5c5.4-2.9,10.4-6.5,14.9-10.7C481,400.2,473.3,394,473.3,394z"/>
	<path id="Path_12810" class="st0" d="M465.1,357.3l22.2-7c2.8-11.9,2.6-24.3-0.5-36.1c-8.9,19.8-35,24.7-49.9,40.4
		c-9.3,10.1-13.6,23.8-11.5,37.4l-4.7,15.8c22-1.9,42.1-13.3,55-31.3c3.5-5,6.4-10.5,8.6-16.2C474.8,359.4,465.1,357.3,465.1,357.3z
		"/>
	<path id="Path_12811" class="st1" d="M512,426.7c0,0.5-0.4,0.9-0.9,0.9c0,0,0,0,0,0H1c-0.5,0-0.9-0.3-1-0.8c0-0.5,0.3-0.9,0.8-1
		c0,0,0.1,0,0.1,0h510.1C511.6,425.8,512,426.2,512,426.7C512,426.7,512,426.7,512,426.7L512,426.7z"/>
	<circle id="Ellipse_47" class="st2" cx="211.5" cy="225.4" r="162.9"/>
	<path id="Path_12812" class="st3" d="M351.6,225.4c0,44.4-21,86.1-56.6,112.5c-1.2,0.9-2.4,1.7-3.6,2.6
		c-48.1,33.4-111.9,33.4-160,0c-1.2-0.8-2.4-1.7-3.6-2.6c-62.1-46.2-75.1-134-28.9-196.1c8.2-11,17.9-20.7,28.9-28.9
		c1.2-0.9,2.4-1.7,3.6-2.6c48.1-33.4,111.9-33.4,160,0c1.2,0.8,2.4,1.7,3.6,2.6C330.7,139.3,351.7,181,351.6,225.4z"/>
	<circle id="Ellipse_48" class="st4" cx="211.5" cy="225.4" r="128"/>
	<path id="Path_12813" class="st5" d="M211.8,97.7c-1.9,0-3.9,0.1-5.8,0.1c70.4,6.2,122.5,68.3,116.3,138.8
		c-5.6,63.9-57.7,113.8-121.8,116.7c3.7,0.3,7.4,0.5,11.2,0.5c70.7,0,128.1-57.3,128.1-128C339.9,155.1,282.6,97.7,211.8,97.7
		C211.9,97.7,211.8,97.7,211.8,97.7L211.8,97.7z"/>
	<path id="Path_12814" class="st3" d="M211.8,88.2c-2.3,0-4.2,1.9-4.2,4.2v18.2c0,2.3,1.9,4.2,4.2,4.2c2.3,0,4.2-1.9,4.2-4.2l0,0
		V92.4C216,90.1,214.1,88.2,211.8,88.2z"/>
	<path id="Path_12815" class="st3" d="M295,112.8c-1.2-0.9-2.4-1.7-3.6-2.6c-1.5-0.1-2.9,0.6-3.7,1.8l-10.2,15
		c-1.2,1.9-0.7,4.5,1.2,5.8c1.9,1.2,4.3,0.7,5.6-1.1l10.2-15C295.4,115.6,295.6,114.1,295,112.8z"/>
	<path id="Path_12816" class="st3" d="M341.6,181.4c-0.9-2.1-3.3-3.2-5.4-2.3c0,0,0,0,0,0l-16.9,6.8c-2.1,1-3,3.5-2,5.6
		c0.9,1.9,3.1,2.8,5.1,2.2l16.9-6.8C341.4,185.9,342.4,183.5,341.6,181.4z"/>
	<path id="Path_12817" class="st3" d="M145.4,127.1l-10.2-15c-0.8-1.2-2.2-1.9-3.7-1.8c-1.2,0.8-2.4,1.7-3.6,2.6
		c-0.5,1.3-0.4,2.8,0.4,3.9l10.2,15c1.3,1.9,3.9,2.3,5.8,0.9C146.1,131.5,146.6,129,145.4,127.1L145.4,127.1z"/>
	<path id="Path_12818" class="st3" d="M103.6,185.9l-16.9-6.8c-2.2-0.7-4.5,0.4-5.3,2.6c-0.7,2,0.2,4.2,2.2,5.1l16.9,6.8
		c2.1,1,4.6,0.1,5.6-2c1-2.1,0.1-4.6-2-5.6C103.9,186,103.8,186,103.6,185.9z"/>
	<path id="Path_12819" class="st3" d="M211.8,336c-2.3,0-4.2,1.9-4.2,4.2v18.2c0,2.3,1.9,4.2,4.2,4.2c2.3,0,4.2-1.9,4.2-4.2v-18.2
		C216,337.8,214.1,336,211.8,336z"/>
	<path id="Path_12820" class="st3" d="M294.6,334l-10.2-15c-1.2-1.9-3.8-2.5-5.8-1.2c-1.9,1.2-2.5,3.8-1.2,5.8
		c0,0.1,0.1,0.1,0.1,0.2l10.2,15c0.8,1.2,2.2,1.9,3.7,1.8c1.2-0.8,2.4-1.7,3.6-2.6C295.6,336.6,295.4,335.1,294.6,334z"/>
	<path id="Path_12821" class="st3" d="M339.3,263.9l-16.9-6.8c-2.2-0.7-4.5,0.4-5.3,2.6c-0.7,2,0.2,4.2,2.2,5.1l16.9,6.8
		c2.2,0.7,4.5-0.4,5.3-2.6C342.1,267.1,341.2,264.9,339.3,263.9z"/>
	<path id="Path_12822" class="st3" d="M144.3,317.8c-1.9-1.3-4.5-0.8-5.8,1.1c0,0,0,0,0,0l-10.2,15c-0.8,1.2-0.9,2.6-0.4,3.9
		c1.2,0.9,2.4,1.7,3.6,2.6c1.5,0.1,2.9-0.6,3.7-1.8l10.2-15C146.7,321.7,146.2,319.1,144.3,317.8
		C144.3,317.8,144.3,317.8,144.3,317.8z"/>
	<path id="Path_12823" class="st3" d="M105.9,259.4c-0.9-2.1-3.3-3.2-5.4-2.3c0,0,0,0,0,0l-16.9,6.8c-2.2,0.7-3.3,3.1-2.6,5.3
		c0.7,2.2,3.1,3.3,5.3,2.6c0.2-0.1,0.3-0.1,0.4-0.2l16.9-6.8C105.8,263.9,106.8,261.5,105.9,259.4L105.9,259.4z"/>
	<path id="Path_12824" class="st6" d="M217.2,223.3c0.8,4.7-2.4,9.2-7.1,10l-73.9,12.6c-4.8,0.5-9.1-3-9.6-7.8
		c-0.4-4.3,2.4-8.3,6.6-9.4l73.9-12.6C211.9,215.4,216.4,218.5,217.2,223.3z"/>
	<path id="Path_12825" class="st6" d="M295.1,305.2c-2.2,2.2-5.8,2.2-8,0l-79.6-79c-2.3-2.2-2.3-5.8-0.1-8c2.2-2.3,5.8-2.3,8-0.1
		c0,0,0.1,0.1,0.1,0.1l79.6,79C297.3,299.4,297.3,303,295.1,305.2z"/>
	<circle id="Ellipse_49" class="st1" cx="211.5" cy="225.4" r="9.8"/>
	<path id="Path_12826" class="st2" d="M143.6,54.6c-15.1,23.8-38.2,39.6-66.6,49.9c-2.4,1.8-5.7,1.3-7.5-1.1l0,0
		c-15.9-20.5-12.2-50,8.3-65.9s50-12.2,65.9,8.3c0.2,0.2,0.3,0.5,0.5,0.7l0.4,0.6C146.5,49.5,146,52.8,143.6,54.6L143.6,54.6z"/>
	<path id="Path_12827" class="st2" d="M278.7,46.5c15.5-20.8,45-25.1,65.7-9.5c20.8,15.5,25.1,45,9.5,65.7c-0.2,0.2-0.3,0.5-0.5,0.7
		l0,0c-1.8,2.4-5.1,2.8-7.5,1.1c-26.2-10.6-49.1-27.8-66.6-49.9c-2.4-1.8-2.8-5.1-1.1-7.5L278.7,46.5z"/>
	<path id="Path_12828" class="st2" d="M272,366.5c-2,1.1-2.7,3.6-1.6,5.7l24.1,43c1.1,2,3.7,2.7,5.7,1.6c2-1.1,2.7-3.7,1.6-5.7
		l-24.1-43C276.6,366.1,274,365.4,272,366.5z"/>
	<path id="Path_12829" class="st2" d="M145.2,368.1l-24.1,43c-1.1,2-0.4,4.5,1.6,5.7c2,1.1,4.5,0.4,5.7-1.6l0,0l24.1-43
		c1.1-2,0.4-4.5-1.6-5.7C148.9,365.4,146.3,366.1,145.2,368.1L145.2,368.1z"/>
	<circle id="Ellipse_50" class="st2" cx="299.3" cy="413.3" r="12.9"/>
	<circle id="Ellipse_51" class="st2" cx="308.4" cy="83.7" r="12.9"/>
	<circle id="Ellipse_52" class="st2" cx="210.7" cy="53.4" r="12.9"/>
	<circle id="Ellipse_53" class="st2" cx="117.5" cy="82.2" r="12.9"/>
	<circle id="Ellipse_54" class="st2" cx="125.8" cy="413.3" r="12.9"/>
	<path id="Path_12830" class="st7" d="M289.2,298c1.9,3,5.9,3.9,8.9,2c0.3-0.2,0.6-0.4,0.9-0.7l20.2,10.8l-1.1-11.9l-19-8.5
		c-2.6-2.5-6.7-2.3-9.2,0.3C288,292.2,287.7,295.5,289.2,298L289.2,298z"/>
	<path id="Path_12831" class="st6" d="M304,302.1l7.9-10.9l38.2,18l47.5-8.9c8.8-1.7,17.3,4.2,19,13c0.2,1,0.3,2,0.3,3l0,0
		c0,9-7.3,16.3-16.2,16.3l-54.4,0.1L304,302.1z"/>
	<path id="Path_12832" class="st7" d="M291.8,491l-8-3.8l11-33.5l11.8,5.7L291.8,491z"/>
	<path id="Path_12833" class="st7" d="M345.5,485.6c-0.6,0.4-1.2,0.7-1.8,1.1c-1.2,0.7-2.4,1.4-3.5,2.1l-1.8,1l0,0h0l-0.9,0.2
		l-1.3-3.4l-0.6-1.6l-0.8-2.2l-1.5-4.1l-8.2-21.6l12.7-3.1l0.5,1.9l0,0l0.2,1l4.4,18l0.9,3.7l0,0.1l0.5,2.2l0.5,1.9l0.5,2.1
		L345.5,485.6z"/>
	<path id="Path_12834" class="st8" d="M421.4,409.7c-0.8,1.3-1.6,2.6-2.5,3.9c-1.5,2.4-3.1,4.7-4.7,7c-2.4,3.5,0,0,0,0
		c-0.9,0.9-2,1.6-3.1,2.3c0,0-0.1,0.1-0.1,0.1c-0.8,0.5-1.7,0.8-2.6,1.1l-1,0.2c-1.2,0.3-2.4,0.5-3.5,0.7c-2.1,0.4-4.1,0.6-6.2,0.8
		l-0.5,0c-8.4,0.4-16.9-0.2-25.2-2c-4.2-0.8-8.5-1.8-13-2.8c-1.5-0.3-2.9-0.7-4.4-1l-0.3-0.1c-2.1-0.5-4.3-0.9-6.5-1.4
		c-2.8-0.6-5.7-1.1-8.6-1.6l0.2,4.2c0.2,3.2,0.8,6.4,2,9.4c1.8,4.1,1.8,8.7,0.2,12.8l-1,3c1.1,3,0.7,6.3-1,9l-0.2,0.3l8.5,21.6
		l0.6,1.4h-18.9l-13.2-26.4l-0.6-1.3v-0.1l1.4-50.7c0-0.4,0.1-0.9,0.1-1.3c0.5-4.1,2.6-7.9,5.9-10.4c3.1-2.4,7.1-3.5,11.1-3l4.5,0.6
		l9.2,1.2l6.5,0.8h0.1l19.1,2.5l1.4-5.6l0.3-0.1l8-2.9l27.8-10.2h0.1l1.8-0.7l0.2,0.4c0.1,0.1,0.1,0.2,0.2,0.3
		c1.8,3.2,3.3,6.7,4.4,10.2c1.9,5.8,3.4,11.7,4.6,17.6c0.1,0.3,0.1,0.5,0.1,0.7v0.1c0,0.1,0,0.2,0,0.2
		C422.9,403.6,422.6,406.8,421.4,409.7z"/>
	<path id="Path_12835" class="st8" d="M422.5,391c-0.1-0.4-0.2-0.8-0.3-1.1c-0.9-2.8-2-5.6-3.3-8.3c-1.4-3.1-3.1-6.3-5-9.9
		c-1-1.7-2-3.5-3.1-5.4c-0.6-0.9-1.1-1.9-1.7-2.8l-0.1-0.1l-0.2-0.3l-27.5,3.7l-10.3,1.4l-0.6,5.1l-0.1,1.3l0,0l-0.4,3.4l0,0
		l-0.5,4.6h0l-15.2-2l-15.7-2.1l-8.4-1.1c-3.9-0.5-7.9,0.6-11.1,3c-3.3,2.5-5.4,6.3-5.9,10.4c-0.1,0.4-0.1,0.8-0.1,1.3l-7.9,18.8
		c-4.8,11.3-7.8,23.2-9,35.3l-5.8,18.6l0.8,0.1l12.3,1.1l3.3,0.3l7.2-10.5c0.8-1.2,1.6-2.4,2.3-3.7c1.2-2.1,2.3-4.2,3.2-6.4l15.5-37
		c1.2,0.2,2.4,0.4,3.6,0.6c5.4,0.9,10.7,1.6,15.7,2.2c14.2,1.8,28.7,1.9,42.9,0.4c3.5-0.4,6.9-1,10.2-1.7c1.2-0.3,2.4-0.5,3.6-0.8
		l0.8-0.2c4.9-1.3,8.9-5,10.5-9.8C423.1,396.8,423.2,393.8,422.5,391z"/>
	<path id="Path_12836" class="st8" d="M294.3,485.5l-8.7-4.2l-1.4-0.7l-2.2,5.3l-15.2,3.3c-1.9,0.4-3.2,2.3-2.7,4.3
		c0.3,1.2,1.1,2.1,2.2,2.6l14.8,6l4.7-4.2l-1.2,5.7l5.6,2.3l6.1-19.5L294.3,485.5z"/>
	<path id="Path_12837" class="st8" d="M347.6,477.3l0.6,1.4h-0.6V477.3z"/>
	<path id="Path_12838" class="st8" d="M344.6,479l-9.1,3.1l-1.4,0.5l2.2,5.3l-8.4,13c-1.1,1.7-0.6,3.9,1.1,5c1,0.6,2.2,0.8,3.3,0.3
		l14.8-6.1l0.4-6.3l3.2,4.9l5.6-2.3l-9.4-18.1L344.6,479z"/>
	<path id="Path_12839" class="st6" d="M420.3,399.5c-0.5,0-1.1-0.1-1.5-0.4l-47.9-25l-0.6-2.3l-1-7.2v-0.1l4.6-21
		c-0.1-0.2-0.3-0.5-0.5-0.8c-2.1-3.4-8.2-13.9,3.6-28.4l20.8-24.2l17.8-0.8l0.2,0.3c9.7,12.1,12.6,28.3,7.9,43.1l-1.9,33.5l2,6.8
		c1.2,4,1,8.2-0.5,12.1l0.5,11c0.1,1.8-1.4,3.4-3.2,3.5C420.4,399.5,420.3,399.5,420.3,399.5L420.3,399.5z"/>
	<path id="Path_12840" class="st7" d="M378.7,427.2c3.1-1.8,4.1-5.8,2.3-8.8c-0.2-0.3-0.4-0.6-0.7-0.9l11.5-19.8l-11.9,0.7
		l-9.1,18.7c-2.6,2.5-2.6,6.6-0.1,9.2C372.8,428.3,376.1,428.7,378.7,427.2L378.7,427.2z"/>
	<path id="Path_12841" class="st6" d="M383.3,412.6l-10.7-8.3l19.4-37.5l-7.2-47.8c-1.4-8.9,4.8-17.2,13.6-18.5c1-0.1,2-0.2,3-0.2
		l0,0c9,0.3,16,7.8,15.7,16.8l-1.8,54.4L383.3,412.6z"/>
	<path id="a1ca5f83-7fa1-45b1-9d3b-bf096f25c0e5" class="st8" d="M386.2,280.1v-17.6c-0.4-13,9.8-24,22.8-24.4
		c13-0.4,24,9.8,24.4,22.8c0,0.5,0,1,0,1.6v0c2.9,5.5,2.9,12.1,0,17.6c0,1.7-1.4,3.2-3.2,3.2h-40.9
		C387.7,283.3,386.2,281.9,386.2,280.1z"/>
	<circle id="Ellipse_55" class="st7" cx="402.1" cy="264.4" r="17.7"/>
	<path id="Path_12842" class="st8" d="M420.6,269.1l-0.5-0.1c-2.8-0.5-5.5-1-8.3-1.5l-0.3-6.2l-3.3,5.6c-7.1,2.2-14.8,1.5-21.4-2.1
		c-2.2-1-4.3-2.2-6.4-3.5c1.1-7,5.4-13.1,11.5-16.6c0.3-0.1,0.5-0.3,0.8-0.4l0,0c0.4-0.2,0.9-0.4,1.3-0.6c7-2.7,15-1.2,20.4,4
		C420,253.3,422.3,261.4,420.6,269.1z"/>
</g>
</svg>
