<?xml version="1.0" encoding="utf-8"?>
<!-- Generator: Adobe Illustrator 25.2.1, SVG Export Plug-In . SVG Version: 6.00 Build 0)  -->
<svg version="1.1" id="Layer_1" xmlns="http://www.w3.org/2000/svg" xmlns:xlink="http://www.w3.org/1999/xlink" x="0px" y="0px"
	 viewBox="0 0 4000 4000" style="enable-background:new 0 0 4000 4000;" xml:space="preserve">
<style type="text/css">
	.st0{opacity:0.2;}
	.st1{fill:#371A45;}
	.st2{fill:#FFFFFF;}
	.st3{fill:#E8E8E8;}
	.st4{fill:#D8D8D8;}
	.st5{fill:#22A7F0;}
	.st6{fill:#1C7AEA;}
	.st7{opacity:0.7;}
	.st8{fill:#220F2D;}
	.st9{opacity:0.5;}
	.st10{fill:#FF4040;}
	.st11{fill:#D62B2B;}
</style>
<g>
	<g>
		<g class="st0">
			<ellipse class="st1" cx="2068.12" cy="3393.65" rx="714.94" ry="110.99"/>
		</g>
		<g>
			<g>
				<g>
					<path class="st2" d="M2201.04,1863.31l7.81,169.07l27.09,585.12l14.39,311.45c0,0,11.95,0.88,32.1,1.5
						c87.63,2.69,330.16-0.09,414.49-106.78c38.36-48.65,61.13-190.38,67.09-346.12c7.22-189.68-10.38-400.17-54.72-487.99
						c-37.17-73.6-141.68-108.55-250.02-123.11c-39.81-5.43-80.18-8.05-117.91-8.84
						C2285.25,1856.42,2235.02,1859.34,2201.04,1863.31z"/>
				</g>
				<g class="st0">
					<path class="st1" d="M2235.93,2617.5l14.4,311.46c0,0,342.86,25.93,446.6-105.28c38.37-48.64,61.11-190.42,67.09-346.14
						l-211.9-41.93c0,0-74.18-0.19-83.09,235.47c-2.54,65.95-103.61,89.19-177.55,34.99
						C2264.68,2686.4,2247.34,2654.83,2235.93,2617.5z"/>
				</g>
				<g>
					<path class="st1" d="M2320.98,2949.58c-40.49,0-68.17-1.97-72.07-2.27c-10.13-0.77-17.71-9.59-16.95-19.72
						c0.76-10.13,9.59-17.72,19.72-16.96c3.34,0.26,334.33,23.67,430.8-98.36c35.88-45.39,61.78-200.67,64.46-386.4
						c2.73-189.52-18.5-357.52-54.09-428.02c-62.5-123.81-356.88-131.8-489.63-116.26c-10.14,1.14-19.23-6.04-20.41-16.13
						s6.04-19.22,16.13-20.4c120.28-14.06,449.38-17.02,526.74,136.22c46.2,91.51,60.27,289.94,58.03,445.12
						c-2.25,156.15-22.45,345.51-72.38,408.68C2632.15,2935.23,2430.11,2949.58,2320.98,2949.58z"/>
				</g>
				<g>
					<path class="st2" d="M2745.04,2444.58l-180.87,10.92c-16.15,0.97-29.61,12.69-32.73,28.56
						c-11.4,58.13-30.76,193.76,25.28,239.46c46.51,37.93,122.98,34.68,168.3-2.55c50.7-41.65,57.55-174.85,57.7-240.84
						C2782.78,2459.62,2765.52,2443.35,2745.04,2444.58z"/>
				</g>
				<g class="st0">
					<path class="st1" d="M2531.46,2484.08c-11.43,58.11-30.76,193.74,25.28,239.43c46.52,37.95,122.96,34.69,168.31-2.55
						c31.16-25.64,45.75-85.89,52.4-143.81c-8.56,28.86-21.69,52.21-37.81,67.42c-92.36,87.14-158.81-18.17-158.81-18.17
						s-12.17,25.16-21.59,26.45c-39.4,5.42-29.47-117.53-22.85-181.04C2534.04,2475.44,2532.32,2479.57,2531.46,2484.08z"/>
				</g>
				<g>
					<path class="st1" d="M2638.12,2768.92c-33.94,0-67.52-10.35-93.03-31.15c-61.61-50.25-46.3-182.74-31.7-257.25
						c4.72-24.07,25.15-41.9,49.67-43.38l180.86-10.91c14.83-0.92,29.5,4.43,40.28,14.61c10.78,10.17,16.94,24.51,16.9,39.34
						c-0.21,92.37-11.57,211.59-64.42,255C2709.37,2757.63,2673.55,2768.92,2638.12,2768.92z M2746.15,2462.93l-180.86,10.92
						c-7.8,0.47-14.3,6.13-15.79,13.75c-21.84,111.36-14.79,194.23,18.85,221.67c38.6,31.49,105.01,30.34,145-2.51
						c31.66-26,50.71-110.74,50.99-226.67c0.01-4.79-1.9-9.23-5.37-12.5C2755.49,2464.3,2750.87,2462.68,2746.15,2462.93
						L2746.15,2462.93z"/>
				</g>
				<g>
					<path class="st1" d="M2598.88,2519.88c4.98,73.55-7.53,184.45,81.94,208.02c9.88,2.46,15.89,12.48,13.4,22.36
						c-2.49,9.85-12.49,15.83-22.34,13.34c-12.34-3.82-24.31-9.4-35.25-16.83c-31.29-20.41-48.98-58.38-54.58-92.9
						c-8.22-44.35-2.7-89.55-2.61-133.17C2579.58,2508.31,2597.65,2507.45,2598.88,2519.88L2598.88,2519.88z"/>
				</g>
				<g>
					<path class="st1" d="M2606.41,1979.96c-73.14,4.06-146.9,10.37-218.9,23.63c-23.71,4.57-47.49,9.77-68.95,17.62
						c-23.01,7.66-35.28-25.49-12.63-34.57c50.31-13.97,100.38-17.15,151.52-20.29c49.66-2.58,99.1-3.17,148.81-2.24
						C2616.29,1964.44,2616.57,1979.42,2606.41,1979.96L2606.41,1979.96z"/>
				</g>
			</g>
			<g>
				<path class="st2" d="M2330.51,1830.36c0,0,100.53,54.36,187.12,132.79c63.51,57.52,101.65,262.33-17.62,327.24
					c-119.27,64.91-200.4-241.78-200.4-241.78"/>
			</g>
			<g>
				<path class="st2" d="M2492.77,1941.56c-36.05,53.38-101.33,99.4-185.56,132.64c-4.96-15.77-7.59-25.61-7.59-25.61l30.9-218.25
					C2330.52,1830.35,2412.91,1874.94,2492.77,1941.56z"/>
			</g>
			<g>
				<path class="st3" d="M2429.09,2007.26c-97.15,74.53-259.39,123.31-443.16,123.31c-102.07,0-197.46-15.08-278.79-41.19
					c12.78-80.73,25.7-168.96,36.96-265.51h610.69C2381.78,1886.11,2406.75,1947.4,2429.09,2007.26z"/>
			</g>
			<g>
				<path class="st1" d="M2466.79,2317.73c-11.21,0-22.4-2.35-33.34-7.06c-91.64-39.49-145.75-235.18-151.62-257.36
					c-2.6-9.81,3.26-19.88,13.07-22.48c9.83-2.61,19.89,3.25,22.49,13.07c14.71,55.49,66.84,205.53,130.62,233
					c14.59,6.29,28.32,5.43,43.2-2.67c59.14-32.18,73.4-92.47,76.64-125.54c6.49-66.29-18.42-135.17-61.99-171.4
					c-0.2-0.17-0.4-0.34-0.59-0.51c-83.96-76.06-182.53-129.71-183.52-130.24c-8.94-4.83-12.26-15.99-7.43-24.92
					s16-12.27,24.92-7.43c4.18,2.26,103.29,56.21,190.44,135.08c53.16,44.42,82.5,124.05,74.77,203.01
					c-6.72,68.61-41.59,124.83-95.67,154.26C2495.1,2313.99,2480.93,2317.73,2466.79,2317.73z"/>
			</g>
			<g>
				<path class="st2" d="M2074.62,3071.61c1.1,142.96,11.96,261.08,0.23,294.72c-19.08,54.91-68.74,59.7-68.74,59.7h-183.63
					c0,0-102.74,5.84-133.92-22.82c-31.13-28.62-32.41-73.49-15.47-100.05c19.81-31.08,64.49-37.66,64.49-37.66
					s-24.92-158.34-49.93-374.46c-8.81-76.27-17.66-159.71-25.42-245.93l423.99,184.77
					C2076.22,2911.45,2074.03,2995.07,2074.62,3071.61z"/>
			</g>
			<g class="st0">
				<path class="st1" d="M2074.85,3366.34c-19.08,54.91-68.74,59.7-68.74,59.7h-183.63c0,0-102.74,5.84-133.92-22.82
					c-28.25-25.97-31.91-65.32-19.67-92.25c4.29,10.09,10.73,19.58,19.67,27.8c31.18,28.66,133.92,22.82,133.92,22.82h183.63
					c0,0,49.66-4.79,68.74-59.7c2.65-7.62,4.15-19.54,4.88-35.15C2080.92,3314.9,2080.46,3350.27,2074.85,3366.34z"/>
			</g>
			<g>
				<path class="st4" d="M2079.73,3253.05c-1.32-52.63-4.52-120.5-5.11-195.13c-0.14-17.66-0.14-35.65,0.09-53.95
					C2075.9,3110.14,2082.11,3201.52,2079.73,3253.05z"/>
			</g>
			<g class="st0">
				<path class="st1" d="M2074.62,3071.61c-91.74-104.07-283.31-157.97-386.97-180.57c-8.81-76.27-17.66-159.71-25.42-245.93
					l423.99,184.77C2076.22,2911.45,2074.03,2995.07,2074.62,3071.61z"/>
			</g>
			<g>
				<path class="st1" d="M1798.41,3445.06c-35.74,0-95.77-3.91-122.28-28.28c-38.38-35.3-39.57-90.51-18.55-123.5
					c15.32-24.04,41.65-35.99,59.29-41.57c-10.04-66.39-47.5-322.18-72.93-604.96c-0.91-10.11,6.55-19.05,16.67-19.96
					c10.08-0.85,19.05,6.56,19.96,16.67c29.34,326.18,74.73,616.29,75.19,619.18c0.76,4.85-0.44,9.8-3.35,13.75
					c-2.91,3.95-7.28,6.58-12.13,7.29c-0.3,0.05-36.74,5.92-51.67,29.35c-12.6,19.78-11.44,54.71,12.43,76.66
					c17.5,16.08,80.94,20.18,120.41,17.97c0.35-0.02,0.69-0.03,1.04-0.03h182.51c5.09-0.78,38.61-7.34,52.52-47.32
					c6.48-18.64,4.44-79.41,2.08-149.79c-3.5-104.09-8.29-246.65,8.4-382.91c1.23-10.08,10.41-17.25,20.49-16.02
					c10.08,1.23,17.25,10.41,16.02,20.49c-16.33,133.41-11.6,274.32-8.14,377.2c2.79,83.1,4.63,137.99-4.1,163.11
					c-22.7,65.28-81.84,71.69-84.35,71.93c-0.59,0.06-1.18,0.08-1.76,0.08h-183.14C1818.32,3444.68,1809.54,3445.06,1798.41,3445.06
					z"/>
			</g>
			<g>
				<path class="st2" d="M2545.18,2596.57c-5.06,51.86-16.87,98.89-36.32,140.27c-79.22,168.45-491.25,290.56-750.09,108.32
					c-84.32-59.4-115.21-138.85-117.47-249.37c-3.45-170.25,61.01-414.15,102.8-771.93h610.69
					c36.37,83.86,69.01,165.93,96.64,245.14C2521.46,2269.78,2559.43,2451.89,2545.18,2596.57z"/>
			</g>
			<g class="st0">
				<path class="st1" d="M2545.18,2596.57c-5.06,51.86-16.87,98.89-36.32,140.27c-79.22,168.45-491.25,290.56-750.09,108.32
					c-84.32-59.4-115.21-138.85-117.47-249.37C1868.56,2607.84,2334.98,2625.4,2545.18,2596.57z"/>
			</g>
			<g class="st0">
				<path class="st1" d="M2337.65,2056.92c1.63-0.74,3.24-1.48,4.85-2.23c2.98-1.38,5.92-2.79,8.84-4.2
					c1.64-0.79,3.28-1.59,4.9-2.39c3.09-1.54,6.12-3.1,9.14-4.67c1.3-0.68,2.63-1.34,3.92-2.03c4.09-2.18,8.11-4.39,12.06-6.63
					c1.5-0.85,2.95-1.72,4.43-2.59c2.54-1.48,5.06-2.96,7.54-4.46c1.75-1.06,3.47-2.14,5.19-3.21c2.16-1.35,4.3-2.71,6.41-4.08
					c1.74-1.13,3.47-2.26,5.18-3.4c2.09-1.4,4.15-2.82,6.19-4.25c1.6-1.12,3.23-2.23,4.8-3.36c2.83-2.03,5.6-4.1,8.34-6.17
					c26.99-20.49,49.07-42.92,65.23-66.86c-46.93-39.15-94.72-70.68-126.16-90.04c-3.92-9.21-7.79-18.4-11.81-27.66h-610.69
					c-11.26,96.55-24.18,184.78-36.96,265.51c81.33,26.11,176.73,41.19,278.79,41.19c127.07,0,243.83-23.33,335.91-62.36
					c1.23-0.52,2.44-1.06,3.67-1.59C2330.87,2059.95,2334.28,2058.44,2337.65,2056.92z"/>
			</g>
			<g>
				<path class="st1" d="M1762.37,1826.01c-18.01,155.14-46.53,326.73-72.47,481.65c-12.62,79.57-25.52,158.91-29.37,239.1
					c-5.34,105,8.76,209.26,98.9,275.79c40.89,31.26,89.05,54.41,138.12,69.91c150.48,45.16,318.95,27.48,459.26-42.24
					c55.56-29.04,111.36-67.87,137.51-126.2c57.28-131.41,35.1-290.34,5-426.7c-19.92-78.12-40-155.52-59.68-234.1
					c-1.23-4.95,1.78-9.96,6.73-11.2c4.37-1.09,8.79,1.15,10.62,5.08c22.87,49.42,42.1,100.45,58.43,152.52
					c16.68,59.07,29.3,119.64,39.25,180.24c16.94,115.92,21.66,239.33-26.81,349.26c-5.52,13.19-13.86,26.61-22,38.32
					c-42.86,58.01-105.61,95.01-170.2,123.29c-140.98,58.08-302.32,71.38-449.05,26.85c-53.38-16.89-104.99-41.78-149.6-75.87
					c-73.07-54.39-106.76-134.32-112.43-223.37c-4.28-55.09-0.02-110.58,5.87-165.22c9.76-94.52,34.83-226.46,49.56-321.3
					c17.5-106.42,33.24-213.01,45.82-320.08C1729.31,1798.13,1764.3,1801.21,1762.37,1826.01L1762.37,1826.01z"/>
			</g>
			<g>
				<path class="st2" d="M2529.24,2727.14c-1.87,71.89-3.88,152.54-6.03,231.92c-5.43,199.69-12.01,391.4-20.31,415.32
					c-19.12,54.91-68.74,59.7-68.74,59.7h-201.43c0,0-18.4,3.29-51.72-22.82c-27.48-21.5-39.57-67.05-20.77-103.43
					c6.62-12.78,19.54-25.15,19.54-25.15s-30.44-160.58-50.16-313.48h-0.05c-5.25-40.81-9.72-81.02-12.69-117.53l189.88-292.81
					l199.37-307.5c14.47,143.92,38.8,218.82,49.93,280.44C2567.03,2592.17,2565.34,2639.77,2529.24,2727.14z"/>
			</g>
			<g class="st0">
				<path class="st1" d="M2510.16,3308.19c-2.24,35.1-4.66,58.74-7.26,66.18c-19.12,54.91-68.74,59.7-68.74,59.7h-201.43
					c0,0-18.4,3.29-51.72-22.82c-23.28-18.21-35.51-53.63-27.3-86.13c5.29,10.96,12.73,20.45,21.73,27.48
					c34.46,27.07,53.54,23.64,53.54,23.64h208.5c0,0,51.35-4.98,71.16-61.8C2509.15,3312.98,2509.7,3310.88,2510.16,3308.19z"/>
			</g>
			<g class="st0">
				<path class="st1" d="M2529.24,2727.14c-1.87,71.89-3.88,152.54-6.03,231.92c-174-60.48-393.59,10.13-393.59,10.13h-0.05
					c-5.25-40.81-9.72-81.02-12.69-117.53l189.88-292.81l249.31-27.07C2567.03,2592.17,2565.34,2639.77,2529.24,2727.14z"/>
			</g>
			<g>
				<path class="st1" d="M1833.58,2877.75c69.5,25.61,142.34,40.56,216.5,39.7c24.65,0.05,49.53-1.05,75.02-1.61
					c8.59-0.19,15.83,6.01,17.19,14.24c14.66,96.8,33.18,208.77,48.68,305.66c2.39,14.48,4.71,29.04,6.91,43.48
					c1.55,6.19-0.38,12.97-5.33,16.69c-28.82,24.96-30.95,71.2-3.43,98.05c11.54,9.64,25.04,19,39.63,21.67
					c0.72,0.21,1.3,0.07,1.86,0.15c-0.15,0.04,0.54-0.1-1.1,0.16l3.23-0.29h201.4l-1.76,0.08c30.48-5.59,53.85-31.28,55.69-63.59
					c17.14-209.98,13.81-421.85,24.15-632.06c14.94-36.53,27.6-73.75,30.59-111.1c3.41-38.51-4.73-76.5-13.27-114.56
					c-8.96-39.25-18.1-79.32-25.06-119.65c-7.09-40.34-12.5-80.94-16.64-121.59c-1.03-10.1,6.33-19.13,16.43-20.16
					s19.13,6.33,20.16,16.43c7.72,80.29,22.33,158.22,41,236.91c9.19,40.59,17.92,83.14,14.04,125.64
					c-3.49,42.7-17.31,83.19-33.25,122.14c-0.69,150.45-8.39,375.93-16.3,551.59c-2.5,31.51-2.15,63.43-9.6,94.49
					c-6.33,18.29-17.12,35.67-32.58,48.67c-13.59,11.47-29.94,19.46-47.41,22.81c-1.42,0.32-4.14,0.71-6.19,0.74
					c0,0-201.4,0-201.4,0l3.23-0.29c-2.69,0.41-3.05,0.33-4.26,0.4c-20.7,0.05-40.04-10.99-56.05-22.34
					c-53.66-36.97-57.06-117.75-8.59-160.83c0,0-5.33,16.69-5.33,16.69c-3.24-14.53-6.19-28.97-8.98-43.51
					c-14.21-72.13-26.09-146.08-35.34-218.91c-3.57-29.38-7.28-58.78-9.54-88.36l17.37,15.37c-50.3-0.06-102.55,0.5-152.74-8.6
					c-50.75-8.6-99.8-25.4-146.07-47.38C1816.47,2889.96,1822.01,2873.78,1833.58,2877.75L1833.58,2877.75z"/>
			</g>
			<g>
				<path class="st1" d="M2190.3,2370.63c9.14,11.7,22.07,22.49,35.38,28.75c9.34,4.49,13.28,15.7,8.79,25.05
					c-5.49,12.08-22.66,14.25-31.12,4.17c-13.98-14.78-23.72-31.23-29.83-50.45c-1.51-4.86,1.2-10.03,6.07-11.54
					C2183.8,2365.28,2187.99,2367.2,2190.3,2370.63L2190.3,2370.63z"/>
			</g>
			<g>
				<circle class="st2" cx="1677.77" cy="2577.42" r="67.18"/>
			</g>
			<g class="st0">
				<path class="st1" d="M1744.98,2577.4c0,37.1-30.11,67.22-67.22,67.22s-67.17-30.11-67.17-67.22c0-9.89,2.11-19.26,5.98-27.68
					c10.53,23.31,33.98,39.49,61.19,39.49c27.22,0,50.71-16.18,61.24-39.49C1742.86,2558.14,1744.98,2567.52,1744.98,2577.4z"/>
			</g>
			<g>
				<path class="st1" d="M1677.77,2662.99c-47.18,0-85.57-38.39-85.57-85.57s38.39-85.57,85.57-85.57
					c47.19,0,85.58,38.39,85.58,85.57S1724.96,2662.99,1677.77,2662.99z M1677.77,2528.62c-26.9,0-48.79,21.89-48.79,48.79
					s21.89,48.79,48.79,48.79c26.91,0,48.8-21.89,48.8-48.79S1704.68,2528.62,1677.77,2528.62z"/>
			</g>
			<g>
				<path class="st1" d="M1677.77,2662.99c-47.18,0-85.57-38.39-85.57-85.57s38.39-85.57,85.57-85.57
					c47.19,0,85.58,38.39,85.58,85.57S1724.96,2662.99,1677.77,2662.99z M1677.77,2528.62c-26.9,0-48.79,21.89-48.79,48.79
					s21.89,48.79,48.79,48.79c26.91,0,48.8-21.89,48.8-48.79S1704.68,2528.62,1677.77,2528.62z"/>
			</g>
			<g>
				<g>
					<path class="st2" d="M1780.45,2761.39l347.86,7.14c41.17,0.86,75.58-32.14,76.44-73.37l3.79-185.11
						c0.74-36.09-24.48-66.93-58.43-74.61c-4.81-1.12-9.8-1.71-14.94-1.83l-347.8-7.14c-41.22-0.86-75.63,32.15-76.44,73.37
						l-3.04,146.61l-0.81,38.5C1706.22,2726.18,1739.27,2760.53,1780.45,2761.39z"/>
				</g>
				<g>
					<path class="st2" d="M1780.45,2761.39l347.86,7.14c41.17,0.86,75.58-32.14,76.44-73.37l3.79-185.11
						c0.74-36.09-24.48-66.93-58.43-74.61c-4.81-1.12-9.8-1.71-14.94-1.83l-347.8-7.14c-41.22-0.86-75.63,32.15-76.44,73.37
						l-3.04,146.61l-0.81,38.5C1706.22,2726.18,1739.27,2760.53,1780.45,2761.39z"/>
				</g>
				<g>
					<path class="st2" d="M1780.45,2761.39l347.86,7.14c41.17,0.86,75.58-32.14,76.44-73.37l3.79-185.11
						c0.74-36.09-24.48-66.93-58.43-74.61c-4.81-1.12-9.8-1.71-14.94-1.83l-347.8-7.14c-41.22-0.86-75.63,32.15-76.44,73.37
						l-3.04,146.61l-0.81,38.5C1706.22,2726.18,1739.27,2760.53,1780.45,2761.39z"/>
				</g>
				<g class="st0">
					<path class="st1" d="M1779.93,2761.41l347.86,7.14c41.17,0.86,75.58-32.14,76.44-73.37l3.79-185.11
						c0.74-36.09-24.48-66.93-58.43-74.61c-20.02,12.71-32.74,20.85-32.74,20.85c-19.99,148.24-63.82,221.47-248.4,220.69
						c-79.67-0.36-129.7-13.54-161.08-30.53l-0.81,38.5C1705.71,2726.19,1738.76,2760.55,1779.93,2761.41z"/>
				</g>
				<g>
					<path class="st1" d="M2115.21,2786.65c-0.75,0-1.5,0-2.26-0.02l-317.92-6.53c-28.82-0.6-55.74-12.44-75.82-33.35
						c-20.07-20.92-30.8-48.31-30.21-77.12l3.19-155.22c1.22-58.94,49.54-106.05,108.22-106.05c0.75,0,1.5,0,2.26,0.02l317.92,6.54
						c28.82,0.6,55.74,12.44,75.82,33.35c20.07,20.92,30.8,48.31,30.21,77.11l-3.19,155.22
						C2222.21,2739.54,2173.88,2786.65,2115.21,2786.65z M2113.7,2749.85c0.5,0.01,1,0.02,1.49,0.02
						c38.74,0,70.65-31.11,71.45-70.02l3.19-155.22c0.39-18.99-6.7-37.07-19.97-50.89s-31.04-21.66-50.03-22.05l-317.92-6.54
						c-0.5-0.01-1-0.02-1.49-0.02c-38.75,0-70.65,31.11-71.45,70.02l-3.19,155.22c-0.81,39.41,30.59,72.14,70,72.94L2113.7,2749.85z
						"/>
				</g>
				<g>
					<path class="st2" d="M1903.51,2762.63l0.67,1.33l224.14,4.59c30.18,0.59,56.69-16.93,69.03-42.64
						c4.52-9.31,7.14-19.7,7.34-30.73l1.72-82.24l0.57-27.14l0.95-47.65l0.59-28.08c0.84-41.23-32.17-75.59-73.35-76.45l-75.16-1.51
						c34.51,7.24,60.25,38.33,59.53,74.75l-1.11,54.95l-0.95,45.06l-1.72,85.2c-0.89,41.13-35.29,74.16-76.45,73.35L1903.51,2762.63
						z"/>
				</g>
				<g>
					<path class="st4" d="M1868,2761.88l0.67,1.33l259.65,5.34c30.18,0.59,56.69-16.93,69.03-42.64c4.52-9.31,7.14-19.7,7.34-30.73
						l1.72-82.24l0.57-27.14l0.95-47.65c-15.03-2.39-35.06-0.72-46.4,21.33c-15.71,30.55-31.47,19.95-43.1,2.33l-0.95,45.06
						l-1.72,85.2c-0.89,41.13-35.29,74.16-76.45,73.35L1868,2761.88z"/>
				</g>
				<g>
					<path class="st1" d="M2129.92,2786.95c-0.66,0-1.33-0.01-2-0.02l-333.19-6.84l0.2-18.29c0.2-13.37,9.56-16.88,18.69-17.74
						l0-0.37l5.55,0.11c1.46,0,2.84,0.01,4.12,0.03l216.3,3.16c15.16,0.42,29.39-5.29,40.32-15.78
						c10.94-10.5,17.13-24.55,17.43-39.56l3.8-185.14c0.56-27.11-18.33-50.85-44.91-56.45l4.17-36.39l75.13,1.53
						c51.47,1.09,92.46,43.81,91.37,95.23l-3.8,185.11c-0.5,24.84-10.7,48.05-28.74,65.36
						C2176.82,2777.75,2154,2786.95,2129.92,2786.95z M2112.75,2749.83l15.93,0.32c15.15,0.37,29.28-5.28,40.21-15.78
						c10.94-10.5,17.13-24.55,17.43-39.56v-0.01l3.8-185.13c0.66-31.16-24.18-57.04-55.36-57.7l-13.85-0.28
						c11.14,15.81,17.42,35.11,17,55.57l-3.8,185.13C2133.69,2713.61,2126.18,2733.65,2112.75,2749.83z"/>
				</g>
				<g>
					<path class="st5" d="M1980.45,2598.14c-0.1,6.85,8.71,62.26,8.71,62.26s17.51,0.26,39.01,0.58
						c26.86,0.4,49.04-27.09,49.55-61.39c0.51-34.3-20.85-62.44-47.71-62.83c-18.13-0.27-39.01-0.58-39.01-0.58
						S1980.62,2586.98,1980.45,2598.14z"/>
				</g>
				<g>
					<path class="st6" d="M1980.45,2598.14c-0.1,6.85,8.71,62.26,8.71,62.26s17.51,0.26,39.01,0.58
						c26.86,0.4,49.04-27.09,49.55-61.39c0.51-34.3-20.85-62.44-47.71-62.83c-18.13-0.27-39.01-0.58-39.01-0.58
						S1980.62,2586.98,1980.45,2598.14z"/>
				</g>
				<g>
					<path class="st1" d="M2028.73,2674.77c-0.26,0-0.51,0-0.77-0.01l-27.09-0.41c-13.66-0.19-25.09-10.13-27.18-23.63
						c-7.12-46.11-7.06-50.79-7.03-52.79v-0.01c0.03-2.51,0.15-10.15,8.49-52.81c2.57-13.13,14.06-22.57,27.41-22.57
						c0.14,0,0.27,0,0.41,0l27.24,0.41c17.32,0.25,33.27,8.83,44.9,24.15c10.86,14.31,16.69,33.02,16.4,52.68
						C2090.89,2641.32,2062.8,2674.77,2028.73,2674.77z M1994.24,2598.25c0.03,1.13,0.54,8.36,6.7,48.26l27.42,0.67
						c0.12,0,0.24,0,0.36,0c18.73,0,34.81-21.78,35.2-47.81c0.2-13.52-3.63-26.16-10.79-35.59c-6.39-8.42-14.68-13.12-23.34-13.25
						l-27.23-0.41C1996.47,2579.83,1994.33,2594.39,1994.24,2598.25z"/>
				</g>
				<g>
					
						<ellipse transform="matrix(0.0148 -0.9999 0.9999 0.0148 -637.3781 4549.6738)" class="st5" cx="1990.08" cy="2598.28" rx="62.12" ry="48.64"/>
				</g>
				<g class="st7">
					<path class="st2" d="M2038.7,2599.02c-0.04,2.58-0.2,5.1-0.47,7.57c-4.76-27.3-23.63-47.82-46.54-48.17
						c-24.87-0.37-45.68,23.14-49.08,53.82c-0.85-4.71-1.24-9.63-1.16-14.68c0.51-34.31,22.68-61.77,49.55-61.39
						C2017.86,2536.55,2039.21,2564.71,2038.7,2599.02z"/>
				</g>
				<g>
					<path class="st6" d="M2038.7,2599.02c-0.51,34.27-22.68,61.77-49.55,61.39c-26.87-0.42-48.21-28.54-47.7-62.85
						c0.07-5.4,0.69-10.67,1.79-15.64c6.75,23.24,24.13,39.85,44.73,40.16c22.6,0.36,41.93-19.07,47.76-45.71
						C2037.75,2583.39,2038.8,2591.03,2038.7,2599.02z"/>
				</g>
				<g>
					<path class="st1" d="M1989.75,2674.19c-0.27,0-0.53,0-0.8-0.01c-17.32-0.25-33.26-8.83-44.9-24.15
						c-10.86-14.31-16.69-33.02-16.4-52.68c0.29-19.66,6.67-38.18,17.95-52.17c12.08-14.97,28.3-23.1,45.6-22.81
						c17.32,0.25,33.26,8.83,44.9,24.15c10.86,14.31,16.69,33.02,16.4,52.68c-0.29,19.66-6.67,38.19-17.95,52.17
						C2022.65,2666.11,2006.77,2674.19,1989.75,2674.19z M1941.45,2597.56l13.79,0.21c-0.2,13.53,3.63,26.16,10.79,35.59
						c6.39,8.42,14.68,13.12,23.33,13.25c0.12,0,0.24,0,0.37,0c8.53,0,16.81-4.45,23.35-12.55c7.43-9.21,11.64-21.73,11.84-35.25
						c0.2-13.52-3.63-26.16-10.79-35.59c-6.39-8.42-14.68-13.12-23.33-13.25c-0.12,0-0.24,0-0.37,0c-8.53,0-16.81,4.45-23.35,12.55
						c-7.43,9.21-11.64,21.73-11.84,35.25L1941.45,2597.56z"/>
				</g>
				<g>
					<path class="st1" d="M1888.61,2776.07c-7.6,0-13.77-6.15-13.79-13.75l-0.29-93.68c-0.05-17.13-8.63-32.98-22.94-42.4
						c-22.6-14.86-35.82-39.89-35.36-66.94l2.26-132.03c0.13-7.54,6.27-13.56,13.78-13.56c0.08,0,0.16,0,0.24,0
						c7.62,0.13,13.69,6.41,13.55,14.02l-2.26,132.04c-0.3,17.54,8.27,33.77,22.93,43.42c22.07,14.52,35.29,38.95,35.37,65.36
						l0.29,93.68c0.02,7.62-6.13,13.81-13.75,13.84C1888.64,2776.07,1888.62,2776.07,1888.61,2776.07z"/>
				</g>
			</g>
			<g>
				<path class="st2" d="M2540.68,2504.35c0,0,38.24,10.09,46.2,56.81c7.97,46.76-24.38,74.33-24.38,74.33
					s-180.03,69.02-354.57,13.51c0,0-67.18-61.18,0.6-125.8C2208.53,2523.21,2394.36,2546.08,2540.68,2504.35z"/>
			</g>
			<g>
				<path class="st4" d="M2562.51,2635.51c0,0-180.04,69.01-354.56,13.47c0,0-47.77-43.45-22.11-95.81
					c0.08,0.24,0.16,0.49,0.24,0.73c8.03,23.85,28.28,41.59,52.72,47.62c131.73,32.5,261.08-0.13,308.43-14.82
					c16.68-5.17,30.61-17.11,37.63-33.1c0.08-0.17,0.15-0.35,0.23-0.53c0.69,2.57,1.29,5.24,1.79,8.09
					C2594.83,2607.93,2562.51,2635.51,2562.51,2635.51z"/>
			</g>
			<g>
				<path class="st1" d="M2355.72,2689.15c-48.34,0-100.92-5.94-153.36-22.62l-3.83-1.22l-2.97-2.71
					c-1.44-1.31-35.18-32.54-35.68-76.72c-0.31-27.36,11.79-52.92,35.98-75.99l6.29-6l8.64,1.06c1.83,0.22,183.96,21.9,324.87-18.28
					l4.85-1.38l4.88,1.28c2.03,0.54,49.79,13.77,59.64,71.5c9.61,56.42-28.94,90.01-30.58,91.42l-2.4,2.04l-2.94,1.13
					C2563.72,2654.72,2472.04,2689.15,2355.72,2689.15z M2217.81,2632.82c152.03,46.46,309.88-4.59,334.76-13.3
					c5.7-6.05,21.24-25.67,16.19-55.27c-4.47-26.2-21.11-36.91-28.93-40.57c-130.2,35.43-285.2,22.8-324.43,18.78
					c-12.55,13.84-18.86,28.19-18.76,42.74C2196.79,2607.64,2211.7,2626.16,2217.81,2632.82z"/>
			</g>
			<g>
				<path class="st2" d="M2567.57,2505.13c-163.72,72.23-325.87-85.88-325.87-85.88s-44.6,16.46-88.5-5.24
					c0,0-13.33,50.2-65.74,25.38c-39.86-18.94-79.31-104.23-40.6-189.1c0-0.05,0-0.05,0-0.05c9.88-21.65,24.83-43.22,46.11-63.72
					c-3.86,1.19-119.21,37.38-123.4-28.46c-4.23-65.84,161.7-112.96,286.38-74.66c61.29,18.8,99.22,55.12,99.22,55.12
					s79.45,20.55,161.28,57.88l1.19-233.28c98.16,88.27,159.86,203.3,171.76,306.79v0.05
					C2701.13,2371.75,2664.72,2462.33,2567.57,2505.13z"/>
			</g>
			<g class="st0">
				<path class="st1" d="M2567.57,2505.13c-163.72,72.23-325.87-85.88-325.87-85.88s-44.6,16.46-88.5-5.24
					c0,0-13.33,50.2-65.74,25.38c-39.86-18.94-79.31-104.23-40.6-189.1c-0.18,3.54-6.34,143.26,47.81,153.42
					c54.85,10.25,54.85-37.38,54.85-37.38s68.64,45.47,99.22,2.21c0,0,376.22,269.14,440.67-98.57
					C2701.13,2371.75,2664.72,2462.33,2567.57,2505.13z"/>
			</g>
			<g>
				<path class="st1" d="M2512.62,2204.77c-43.13-14.15-87.08-24.36-129.88-39.1c-5.57-1.78-18.83-5.61-24.19-7.16
					c-5.52-1.54-12.01-2.74-16.36-6.95c-23.7-20.75-51.95-36.5-81.47-47.21c-75.3-25.79-180.07-22.57-249.09,19.55
					c-13.24,9.4-26.52,20.97-23.1,37.32c6.37,28.13,64.75,16.03,86.05,11.37c21.17-3.55,35,22.6,20.55,38.1c0,0-0.33,0.38-0.33,0.38
					l-0.64,0.75l-1.28,1.49c-41.9,45.45-56.76,115.23-29.85,171.36c8.56,17.88,21.25,34.33,36.08,39.63
					c9.68,3.98,20.49,5.99,28.27-1.74c3.69-3.27,6.26-9.07,8.54-13.8c5.6-9.82,17.64-13.78,27.73-10.07
					c22.03,9.73,47.6,10.46,70.7,3.64c7.75-2.43,17.44,0.41,22.98,6.36c8.47,7.7,17.5,15.03,26.78,22.07
					c67.76,50.93,155.48,89.34,240.22,69.43c146.51-36.73,174.27-177.63,128.54-306.59c-21.71-62.24-57.24-119.99-100.87-169.57
					c-14.57-16.68-30.39-32.22-46.67-47.22c-7.75-6.8-8.39-18.72-1.39-26.29c6.88-7.47,18.51-7.95,25.97-1.07
					c17.34,15.96,34.16,32.51,49.69,50.27c104.44,117.33,189.28,321.59,78.56,460.68c-32.16,38.37-77.12,63.94-125.46,75.61
					c-109.28,25.23-219.99-29.49-300.18-100.17c0,0-0.85-0.78-0.85-0.78l-0.43-0.39c-0.41-0.37,0.52,0.49,0.8,0.67
					c3.47,2.76,8.27,3.56,12.17,2.42c-1.08,0.38-3.35,0.91-4.46,1.24c-28.66,7.25-59.79,6.24-87.36-5.24l-1.17-0.47l-0.58-0.23
					c5.32,2.39,13.72,0.49,17.16-5.94c-14.47,35.13-52.71,48.73-92.27,26.68c-63.99-40.95-76.1-135.35-49.48-201.36
					c9.45-24.28,23.77-46.11,40.72-65.16c0,0,0.76-0.88,0.76-0.88l0.37-0.43c-9.57,11.08,1.63,25.43,12.73,22.88
					c-32.51,6.74-64.77,12.7-97.56-1.45c-23.3-10.04-36.23-38.53-30.74-62.99c15.62-65.94,120.69-88.05,178.07-92.16
					c82.8-6.55,171.82,15,235.51,71.14c0,0,0.75,0.67,0.75,0.67c-1.14-1.28-4.13-2.66-5.62-3.03c2.37,0.57,5.19,1.47,7.47,2.05
					c18.98,5.69,39.66,11.47,58.31,17.99c32.12,13.6,63.6,28.85,93.46,46.95C2529.41,2193.73,2523.01,2208.04,2512.62,2204.77
					L2512.62,2204.77z"/>
			</g>
			<g>
				<g>
					<path class="st2" d="M1322.58,1615.94c52.65,111.23,133.75,209.85,239.38,284.36c21.55,15.18,44.03,29.36,67.51,42.43
						c11.41,6.39,23.14,12.49,35.07,18.41c36.05,17.66,72.85,32.14,110.14,43.57c32.11,9.92,64.61,17.52,97.16,22.96
						c39.31,6.59,78.81,9.92,118.1,10.21c14.33,0.06,28.62-0.26,42.87-0.94c260.77-13.13,507.4-160.94,632.52-407.97
						c184.4-363.86,35.23-805.07-333.06-985.5c-70.96-34.7-144.91-57.33-219.34-68.39c-8.69-1.37-17.45-2.5-26.22-3.45
						c-23.45-2.69-46.89-4.26-70.28-4.73c-54.09-1.05-107.88,3.77-160.36,14.1c-52.47,10.26-103.76,26.08-152.78,47.08
						c-15.59,6.67-30.96,13.84-46.11,21.58c-22.69,11.61-44.82,24.3-66.33,38.26c-107.27,69.17-197.99,166.49-259.39,287.72
						C1225.41,1184.94,1229.73,1419.8,1322.58,1615.94z"/>
					<path class="st1" d="M1993.25,2039.74c-1.1,0-2.21,0-3.31,0c-39.8-0.3-79.63-3.74-118.4-10.23
						c-33.12-5.54-65.89-13.29-97.4-23.02c-37.63-11.53-74.78-26.22-110.41-43.67c-13.06-6.48-24.56-12.52-35.16-18.46
						c-23.08-12.83-45.85-27.14-67.68-42.52c-103.17-72.78-186.16-171.36-239.99-285.09c-97.11-205.15-93.86-439.13,8.94-641.93
						c59.41-117.31,149.34-217.05,260.03-288.43c20.93-13.58,43.3-26.48,66.49-38.35c14.89-7.61,30.44-14.89,46.23-21.63
						c49.13-21.05,100.65-36.93,153.14-47.19c52.97-10.42,107.06-15.17,160.75-14.13c23.37,0.46,47.07,2.06,70.45,4.74
						c9.39,1.01,18,2.15,26.29,3.46c75.92,11.27,149.9,34.34,219.87,68.55c179.28,87.84,312.6,239.49,375.39,427.02
						c62.29,186.04,47.55,385.27-41.49,560.99c-120.89,238.66-363.85,395.37-634.08,408.98
						C2019.74,2039.42,2006.41,2039.74,1993.25,2039.74z M2001.95,568.62c-48.67,0-97.54,4.77-145.51,14.2
						c-52.24,10.22-103.51,26.02-152.4,46.97c-15.7,6.72-31.18,13.96-46,21.53c-23.08,11.81-45.34,24.65-66.17,38.16
						c-110.15,71.03-199.62,170.27-258.74,287c-102.27,201.77-105.51,434.56-8.89,638.67c53.55,113.15,136.12,211.23,238.77,283.65
						c21.72,15.31,44.38,29.54,67.34,42.32c10.56,5.91,22,11.92,35,18.37c35.44,17.36,72.41,31.98,109.85,43.45
						c31.36,9.69,63.97,17.4,96.93,22.91c38.57,6.46,78.2,9.89,117.81,10.19c14.21,0.07,28.55-0.26,42.77-0.94
						c268.9-13.54,510.67-169.48,630.96-406.96c88.6-174.82,103.26-373.04,41.28-558.13c-62.47-186.58-195.12-337.47-373.51-424.87
						c-69.62-34.05-143.23-57-218.8-68.22c-8.25-1.31-16.8-2.43-26.14-3.44c-23.28-2.67-46.87-4.26-70.12-4.72
						C2011.6,568.66,2006.77,568.62,2001.95,568.62z"/>
				</g>
				<g class="st0">
					<path class="st1" d="M2665.34,1628.95c-125.1,247.06-371.77,394.88-632.53,407.97c-14.25,0.71-28.53,1.02-42.84,0.95
						c-39.31-0.28-78.79-3.63-118.1-10.19c-32.56-5.47-65.07-13.05-97.15-22.96c-37.31-11.42-74.09-25.9-110.17-43.56
						c-11.9-5.96-23.64-12.03-35.07-18.4c-23.49-13.08-45.94-27.3-67.5-42.47c-105.63-74.51-186.75-173.1-239.4-284.37
						c-28.94-61.1-49.29-126.01-60.37-192.71c52.7,105.01,131.16,198,231.93,269.1c21.53,15.23,44.02,29.39,67.5,42.47
						c11.39,6.38,23.12,12.45,35.07,18.4c36.08,17.66,72.86,32.15,110.13,43.58c32.13,9.9,64.6,17.49,97.16,22.96
						c39.31,6.56,78.84,9.9,118.1,10.19c14.36,0.06,28.64-0.26,42.89-0.97c260.77-13.09,507.39-160.9,632.53-407.97
						c73.04-144.11,93.7-300.35,69.19-447.68C2766.8,1172.46,2774.19,1414.19,2665.34,1628.95z"/>
				</g>
				<g>
					<path class="st1" d="M1993.25,2052.14c-1.12,0-2.24,0-3.36-0.01c-40.5-0.3-80.99-3.8-120.4-10.41
						c-33.66-5.63-66.98-13.5-99.02-23.4c-38.22-11.71-75.98-26.65-112.2-44.38c-13.31-6.6-24.99-12.73-35.77-18.78
						c-23.42-13.03-46.57-27.57-68.76-43.21c-104.91-74.01-189.31-174.27-244.05-289.92l0,0c-98.76-208.65-95.45-446.6,9.08-652.85
						c60.41-119.27,151.83-220.67,264.38-293.25c21.25-13.79,43.99-26.91,67.56-38.97c15.15-7.74,30.96-15.14,47-22
						c49.93-21.39,102.29-37.53,155.64-47.96c53.82-10.59,108.76-15.41,163.37-14.36c23.76,0.47,47.86,2.09,71.63,4.82
						c9.52,1.03,18.32,2.19,26.82,3.53c77.07,11.44,152.27,34.88,223.37,69.66c182.29,89.31,317.85,243.52,381.7,434.22
						c63.35,189.21,48.37,391.83-42.19,570.53c-122.9,242.62-369.86,401.94-644.52,415.76
						C2020.14,2051.82,2006.61,2052.14,1993.25,2052.14z M2001.95,581.02c-47.87,0-95.93,4.69-143.11,13.97
						c-51.39,10.05-101.83,25.6-149.91,46.2c-15.45,6.61-30.67,13.73-45.24,21.17c-22.7,11.61-44.58,24.24-65.06,37.52
						c-108.33,69.86-196.3,167.43-254.42,282.2c-100.53,198.33-103.71,427.14-8.75,627.76l0,0
						c52.65,111.22,133.81,207.63,234.71,278.82c21.36,15.05,43.64,29.05,66.23,41.61c10.41,5.83,21.67,11.74,34.48,18.1
						c34.8,17.04,71.15,31.42,107.97,42.71c30.86,9.54,62.92,17.11,95.34,22.53c37.93,6.36,76.9,9.73,115.85,10.02
						c13.85-0.01,28.09-0.25,42.08-0.93c264.43-13.32,502.21-166.65,620.49-400.17c87.08-171.85,101.5-366.67,40.59-548.59
						c-61.41-183.41-191.82-331.74-367.2-417.67c-68.46-33.48-140.86-56.05-215.16-67.08c-8.16-1.29-16.51-2.39-25.65-3.38
						c-22.97-2.63-46.17-4.19-69.03-4.65C2011.44,581.07,2006.69,581.02,2001.95,581.02z"/>
				</g>
				<g>
					<path class="st1" d="M1993.24,2056.28c-1.12,0-2.25,0-3.37-0.01c-40.73-0.3-81.45-3.82-121.06-10.46
						c-33.84-5.66-67.34-13.58-99.56-23.54c-38.42-11.77-76.39-26.79-112.8-44.62c-13.39-6.65-25.12-12.81-35.97-18.88
						c-23.54-13.1-46.81-27.72-69.12-43.44c-105.5-74.42-190.36-175.24-245.41-291.53l0,0c-99.32-209.81-95.99-449.09,9.13-656.48
						c60.74-119.92,152.66-221.88,265.82-294.86c21.36-13.86,44.23-27.05,67.92-39.17c15.24-7.78,31.13-15.22,47.26-22.12
						c50.19-21.5,102.84-37.73,156.47-48.22c54.11-10.64,109.39-15.5,164.25-14.43c23.89,0.47,48.12,2.1,72.02,4.84
						c9.56,1.03,18.43,2.2,27,3.56c77.45,11.5,153.05,35.07,224.55,70.03c183.3,89.81,319.6,244.87,383.8,436.62
						c63.71,190.27,48.64,394.02-42.42,573.71c-123.56,243.94-371.87,404.12-648.01,418.02
						C2020.27,2055.95,2006.67,2056.28,1993.24,2056.28z M2001.95,585.16c-47.6,0-95.4,4.66-142.31,13.89
						c-51.11,10-101.26,25.45-149.08,45.94c-15.37,6.57-30.5,13.65-44.99,21.05c-22.56,11.55-44.34,24.1-64.69,37.31
						c-107.72,69.47-195.2,166.49-252.99,280.6c-99.94,197.19-103.11,424.67-8.7,624.12l0,0
						c52.34,110.58,133.04,206.44,233.36,277.21c21.24,14.96,43.4,28.89,65.85,41.38c10.35,5.8,21.56,11.68,34.31,18.01
						c34.59,16.94,70.74,31.24,107.35,42.46c30.69,9.48,62.58,17.02,94.81,22.41c37.71,6.32,76.47,9.67,115.21,9.96
						c13.84,0.07,27.92-0.25,41.86-0.92c262.94-13.24,499.38-165.71,617-397.91c86.58-170.85,100.91-364.55,40.36-545.41
						c-61.05-182.35-190.72-329.83-365.1-415.27c-68.08-33.29-140.07-55.74-213.95-66.71c-8.14-1.29-16.42-2.38-25.49-3.36
						c-22.88-2.62-45.94-4.17-68.67-4.62C2011.38,585.2,2006.66,585.16,2001.95,585.16z"/>
				</g>
				<g>
					<path class="st1" d="M1424.84,1774.76c417.72,324.94,1024.16,143.82,1087.28-373.23c42.94-351.77-273.07-663.52-618.22-681.27
						c-251.2-12.92-502.6,82.83-631,461.83c0,0-30.59,176.33,10.93,297.19c41.53,120.86,102.63,231.42,102.63,231.42
						L1424.84,1774.76z"/>
				</g>
				<g>
					<path class="st8" d="M2512.1,1401.53c-63.11,517.04-669.56,698.15-1087.27,373.24l-9.79-13
						c474.72,111.3,970.31-145.33,1043.99-666.96C2504.44,1188.23,2525.33,1292.97,2512.1,1401.53z"/>
				</g>
				<g>
					<path class="st1" d="M1888.11,2031.14c-38.46,0-77.24-2.71-116.01-8.23l-2.8-0.62c-38.47-11.79-76.43-26.8-112.84-44.64
						c-13.39-6.65-25.12-12.81-35.97-18.88c-23.54-13.1-46.81-27.72-69.12-43.44c-105.5-74.42-190.36-175.24-245.41-291.53l0,0
						c-99.32-209.81-95.99-449.09,9.13-656.48c60.74-119.92,152.66-221.88,265.82-294.86l1.59-1.03l1.76-0.68
						c91.74-35.38,196.66-50.31,311.86-44.38c207.29,10.67,413.79,115.47,552.37,280.36c124.78,148.46,181.53,328.16,159.81,506.01
						c-23.66,193.62-113.93,355.56-261.04,468.33C2219.87,1978.73,2057.13,2031.13,1888.11,2031.14z M1778.7,1986.7
						c198.96,27.91,397.96-21.18,546.19-134.81c139.09-106.62,224.46-260.01,246.89-443.6c20.47-167.61-33.32-337.33-151.46-477.89
						c-132.13-157.22-328.81-257.14-526.11-267.29c-109.24-5.62-208.48,8.27-294.97,41.29c-106.95,69.37-193.85,166-251.36,279.54
						c-99.94,197.19-103.11,424.67-8.7,624.12l0,0c52.34,110.58,133.04,206.44,233.36,277.21c21.24,14.96,43.4,28.89,65.85,41.38
						c10.35,5.8,21.56,11.68,34.31,18.01C1706.88,1961.39,1742.55,1975.54,1778.7,1986.7z"/>
				</g>
				<g>
					<path class="st1" d="M1888.8,1947.6c-164.17,0-330.67-56.49-470.11-164.96l-1.04-0.81l-49.94-66.3
						c-0.62-1.11-62-112.71-103.33-233c-41.88-121.89-12.6-294.85-11.33-302.15l0.38-1.5c110.83-327.13,326.64-484.74,640.98-468.61
						c182.7,9.4,364.71,101.79,486.88,247.15c109.86,130.71,159.84,288.85,140.74,445.32c-27.72,227.09-162.45,406.75-369.64,492.92
						C2068.52,1930.53,1979,1947.6,1888.8,1947.6z M1432.01,1767.67c210.24,162.98,483.22,204.96,712.7,109.52
						c200.36-83.32,330.65-257.13,357.48-476.88c18.42-150.9-29.95-303.62-136.2-430.03c-118.67-141.19-295.35-230.93-472.6-240.05
						c-304.38-15.68-513.08,137.19-620.76,454.29c-2.06,12.5-28.19,178.41,10.66,291.5c39.17,114.02,96.67,220.22,101.59,229.22
						L1432.01,1767.67z"/>
				</g>
				<g>
					<path class="st2" d="M2844.23,1387.68c0.11,145.05-86.64,267.05-193.81,272.46s-194.13-107.8-194.25-252.85
						c-0.02-0.91,0.01-1.87,0.04-2.79c0.96-143.83,87.36-264.31,193.77-269.68c82.79-4.19,153.52,62.43,181.48,159.81
						C2839.68,1323.31,2844.2,1354.69,2844.23,1387.68z"/>
				</g>
				<g class="st0">
					<path class="st1" d="M2844.23,1387.68c0.11,145.05-86.64,267.05-193.81,272.46s-194.13-107.8-194.25-252.85
						c-0.02-0.91,0.01-1.87,0.04-2.79c11.79,14.29,30.14,28.02,54.98,21.83c43.51-10.87,121.52-108.09,121.52-108.09
						s86.12-10.8,198.74-23.61C2839.68,1323.31,2844.2,1354.69,2844.23,1387.68z"/>
				</g>
				<g>
					<path class="st1" d="M2642.92,1678.71c-43.91,0-85.4-17.45-120.49-50.78c-53.73-51.04-84.58-131.46-84.65-220.64
						c-0.13-154.48,94.66-284.94,211.29-290.83c47.04-2.39,91.59,15.11,128.91,50.57c53.73,51.04,84.58,131.47,84.65,220.64l0,0
						c0.13,154.48-94.66,284.94-211.29,290.83C2648.53,1678.64,2645.72,1678.71,2642.92,1678.71z M2657.37,1153.02
						c-2.14,0-4.29,0.06-6.44,0.16c-97.36,4.91-176.47,118.89-176.37,254.07c0.06,77.99,27.43,150.52,73.2,194.01
						c29.84,28.35,65.01,42.36,101.72,40.5c97.36-4.91,176.47-118.89,176.37-254.07l0,0c-0.06-77.99-27.43-150.51-73.2-194
						C2724.57,1167,2691.74,1153.02,2657.37,1153.02z"/>
				</g>
				<g>
					
						<ellipse transform="matrix(0.0568 -0.9984 0.9984 0.0568 1147.972 4042.5027)" class="st2" cx="2713.51" cy="1413.68" rx="214.5" ry="146.21"/>
				</g>
				<g class="st0">
					<path class="st1" d="M2712.81,1627.82c80.93-4.72,146.8-104.4,147.18-222.7c0.07-12.84-0.71-25.38-2.14-37.5
						c-21.53,81.49-75.45,141.51-138.37,145.11c-71.05,4.06-130.28-65.24-144.18-161.26c-5.28,22.31-8.2,46.13-8.3,70.73
						C2566.63,1540.5,2631.92,1632.53,2712.81,1627.82z"/>
				</g>
				<g>
					<path class="st1" d="M2706.81,1646.39c-32.3,0-63-12.96-89.19-37.75c-43.43-41.1-69.22-110.81-68.97-186.47
						c0.4-127.61,74.18-235.72,164.48-240.99c34.86-2.01,68.19,10.95,96.29,37.55c43.43,41.1,69.22,110.81,68.97,186.47
						c-0.41,127.62-74.19,235.73-164.49,240.99C2711.53,1646.32,2709.17,1646.39,2706.81,1646.39z M2720.06,1217.75
						c-1.6,0-3.19,0.05-4.8,0.14c-71.25,4.16-129.5,95.84-129.84,204.39c-0.21,65.71,21.28,125.39,57.48,159.64
						c20.55,19.45,44.37,28.97,68.87,27.54c71.25-4.15,129.5-95.84,129.85-204.39c0.21-65.71-21.28-125.38-57.48-159.64
						C2764.93,1227.26,2742.87,1217.75,2720.06,1217.75z"/>
				</g>
				<g class="st9">
					<path class="st2" d="M2068.15,871.19c0,0-329.09,3.76-520.02,180.65c-0.2,0.19-0.4,0.37-0.6,0.56
						c-40.15,37.26-69.39,84.54-85.01,136.63c-20.65,68.89-24.66,119.31-26.45,163.82c-5.39,135.38,17.77,199.72,17.77,199.72
						c-75.24-74.26-116.01-157.01-112.65-269.81c0.36-11.12,1.15-22.57,2.33-34.31c0.26-2.7,0.59-5.38,0.95-8.07
						c-0.06-0.03-0.03-0.09,0.04-0.16c4.1-23.6,10.66-54.43,21.02-88.6c31.16-103.07,96.45-236.65,231.26-294.98
						C1848.87,747.57,2080.02,857.45,2068.15,871.19z"/>
				</g>
				<g class="st9">
					
						<ellipse transform="matrix(0.9728 -0.2318 0.2318 0.9728 -224.3897 561.3649)" class="st2" cx="2276.65" cy="1235.56" rx="99.7" ry="114.53"/>
				</g>
				<g class="st9">
					
						<ellipse transform="matrix(0.947 -0.3212 0.3212 0.947 -338.8914 822.3557)" class="st2" cx="2323.16" cy="1438.38" rx="41.16" ry="47.31"/>
				</g>
			</g>
			<g>
				<g>
					<path class="st5" d="M2020.41,2292.75l-1.75,2.28l-55.09,71.29l-54.39-52.64h-236.22c-21.41,0-40.53-13.22-48.08-33.22
						l-143.46-380.79l-95.86-92.76l52.99-67.32c8.19-16.61,25.27-28.66,46.03-28.66h323.24c21.93,0,41.47,13.98,48.6,34.74
						l171.18,499.98C2033.4,2262.57,2029.89,2279.88,2020.41,2292.75z"/>
				</g>
				<g class="st7">
					<path class="st2" d="M2020.42,2292.77l-1.75,2.25l-1.38,1.79l-177.47-518.19c-7.4-21.61-27.77-36.18-50.62-36.18h-336.68
						c-6.71,0-13.06,1.2-18.9,3.4l4.92-6.25c8.18-16.6,25.29-28.64,46.02-28.64h323.25c21.93,0,41.47,13.98,48.6,34.76
						l171.17,499.98C2033.38,2262.56,2029.89,2279.89,2020.42,2292.77z"/>
				</g>
				<g>
					<path class="st1" d="M1963.56,2384.71c-4.76,0-9.35-1.84-12.79-5.18l-49.04-47.46h-228.78c-28.87,0-55.1-18.13-65.28-45.12
						l-142.01-376.94l-92.9-89.89c-6.78-6.56-7.5-17.18-1.66-24.59l51.88-65.92c12.13-22.92,35.54-37.08,61.58-37.08h323.24
						c29.78,0,56.3,18.95,65.99,47.15l171.19,500c7.41,21.66,3.75,45.56-9.79,63.95c-0.07,0.1-0.15,0.2-0.22,0.3l-56.88,73.61
						c-3.2,4.14-8.01,6.72-13.23,7.1C1964.44,2384.7,1964,2384.71,1963.56,2384.71z M1410.28,1805.25l83.93,81.21
						c1.95,1.89,3.46,4.19,4.42,6.73l143.46,380.79c4.81,12.74,17.21,21.31,30.86,21.31h236.22c4.78,0,9.36,1.86,12.79,5.18
						l39.62,38.34l44.12-57.11c6.4-8.78,8.05-19.74,4.51-30.08l-171.19-499.99c-4.58-13.33-17.12-22.3-31.2-22.3h-323.24
						c-12.62,0-23.94,7.05-29.54,18.4c-0.57,1.15-1.25,2.24-2.05,3.24L1410.28,1805.25z M2020.41,2292.75h0.05H2020.41z"/>
				</g>
				<g>
					<path class="st5" d="M1920.51,2389.73h-306.06c-21.38,0-40.55-13.24-48.09-33.24l-89.05-236.45l-99.26-263.53
						c-12.69-33.61,12.14-69.52,48.04-69.52h323.21c21.98,0,41.52,13.98,48.6,34.76l171.26,499.98
						C1980.56,2355.06,1955.78,2389.73,1920.51,2389.73z"/>
				</g>
				<g>
					<path class="st6" d="M1695.46,2389.73h-81.01c-21.38,0-40.55-13.24-48.09-33.24l-89.05-236.45l199.49-85.24
						c0,0,48.64,50.3-0.55,117.37C1676.25,2152.17,1789.02,2318.7,1695.46,2389.73z"/>
				</g>
				<g>
					<path class="st1" d="M1920.53,2408.13h-306.08c-28.87,0-55.11-18.15-65.29-45.17l-188.35-499.98l0,0
						c-8.07-21.43-5.11-45.46,7.92-64.29c13.03-18.83,34.47-30.07,57.37-30.07h323.2c29.82,0,56.34,18.95,66,47.16l171.23,499.98
						c7.39,21.58,4.02,44.6-9.24,63.16S1943.34,2408.13,1920.53,2408.13z M1395.24,1850.01l188.35,499.98
						c4.81,12.78,17.21,21.36,30.86,21.36h306.08c10.79,0,20.57-5.03,26.84-13.81c6.27-8.78,7.86-19.66,4.37-29.87l-171.23-499.98
						c-4.57-13.34-17.11-22.3-31.21-22.3h-323.2c-10.99,0-20.87,5.18-27.12,14.22S1391.36,1839.73,1395.24,1850.01L1395.24,1850.01z
						"/>
				</g>
			</g>
			<g>
				<path class="st2" d="M1660.29,2222.24c33.33,97.51-53.47,125.6-95.72,129.74c0,79.22-148.45,115.77-220.68,42.21
					c-51.49-52.46-55.77-112.04-42.85-164.18c18.62-75.22,73.05-134.8,73.05-134.8c-7.49-112.55,49.65-117.1,49.65-117.1
					l25.61,67.95c57.75,10.39,166.2-71.54,208.5-12.78c43.35,60.18-44.23,106.52-44.23,106.52
					C1637.53,2171.67,1652.34,2198.93,1660.29,2222.24z"/>
			</g>
			<g class="st0">
				<path class="st1" d="M1564.57,2351.98c0,79.22-148.45,115.77-220.68,42.21c-51.49-52.46-55.77-112.04-42.85-164.18h0.05
					c0,0-7.59,112,84.46,127.72c78.07,13.33,45.06-66.85,44.09-69.19c3.86,1.38,235.21,85.19,230.66-66.3
					C1693.62,2319.76,1606.82,2347.85,1564.57,2351.98z"/>
			</g>
			<g>
				<path class="st1" d="M1445.63,2452.48c-40.21,0-82.87-12.82-114.86-45.4c-56.91-57.98-69.37-133.09-36.03-217.21
					c19.38-48.89,48.74-86.86,60.6-101.06c-5.35-121.85,63.94-128.79,66.95-129.03c8.17-0.63,15.78,4.18,18.67,11.85l21.44,56.92
					c17.65-0.54,41.5-8.39,64.69-16.02c49.89-16.42,111.96-36.83,145.69,10.01c13.73,19.07,18.46,39.94,13.67,60.37
					c-6.67,28.48-29.82,49.8-46.54,61.93c43.56,63.16,56.43,116.04,38.24,157.36c-17.09,38.82-58.87,58.96-96.86,65.95
					c-6.34,30.35-30.48,56.32-67.23,71.35C1494.23,2447.62,1470.4,2452.48,1445.63,2452.48z M1387.71,2107.59L1387.71,2107.59
					c-5.88,6.46-142.67,159.64-30.68,273.73c38.02,38.72,100.79,41.46,143.13,24.15c13.84-5.66,46.04-22.2,46.04-53.5
					c0-9.46,7.18-17.38,16.6-18.3c29.57-2.9,68.72-16.75,81.71-46.26c13.76-31.27-2-78.49-45.57-136.54
					c-3.23-4.3-4.41-9.8-3.24-15.05c1.17-5.25,4.58-9.72,9.34-12.24c10.85-5.81,40.28-25.98,45.64-49.11
					c2.32-10.02-0.21-19.97-7.72-30.42c-16.74-23.25-52.19-13.74-104.35,3.43c-33.66,11.08-65.44,21.54-92.52,16.67
					c-6.37-1.15-11.66-5.56-13.95-11.62l-18.7-49.64c-12.2,11.09-24.54,37.64-20.97,91.09
					C1392.79,2098.97,1391.08,2103.89,1387.71,2107.59z"/>
			</g>
			<g>
				<path class="st1" d="M1463.22,2319.37c32.89,9.96,68.13,15.67,102.5,14.21c26.46,0.35,24.51,39.13-1.91,36.76
					c-28.45-3.6-55.88-11.63-82.27-22.38c-8.69-3.57-17-7.3-25.63-11.71c-4.53-2.32-6.32-7.87-4.01-12.4
					C1454.04,2319.66,1458.94,2317.84,1463.22,2319.37L1463.22,2319.37z"/>
			</g>
			<g>
				<path class="st1" d="M1947.86,3091.23c-174.76,0-247.33-36.47-250.95-38.35c-9.01-4.69-12.52-15.79-7.84-24.8
					c4.67-8.99,15.73-12.51,24.73-7.87c1.51,0.75,104.05,50.63,359.15,28.53c10.19-0.9,19.04,6.61,19.91,16.73
					c0.88,10.12-6.61,19.03-16.73,19.91C2028.35,3089.51,1985.71,3091.23,1947.86,3091.23z"/>
			</g>
			<g>
				<path class="st1" d="M2298.7,3079.72c-95.43,0-159.93-18.9-164.35-20.23c-9.73-2.93-15.23-13.19-12.3-22.92
					c2.93-9.73,13.2-15.23,22.92-12.3c2.61,0.78,173.53,50.15,369.29-16.7c9.61-3.3,20.06,1.85,23.34,11.46s-1.85,20.06-11.46,23.34
					C2442.18,3071.05,2363.34,3079.72,2298.7,3079.72z"/>
			</g>
			<g>
				<g>
					<path class="st2" d="M2434.37,3281.02c-70.37-32.6-232.55-18.51-254.57,1.64"/>
				</g>
				<g>
					<path class="st1" d="M2430.5,3289.36c-55.83-22.65-180.26-17.36-236.11,5.46c-1.65,0.8-2.44,1.66-2.17,1.41
						c-18.24,15.91-42.34-10.29-24.83-27.13c36.89-28.03,159.32-23.18,205.65-15.34c22,3.62,44.13,8.63,65.2,18.93
						c4.56,2.23,6.45,7.74,4.22,12.3C2440.28,3289.43,2434.97,3291.32,2430.5,3289.36L2430.5,3289.36z"/>
				</g>
			</g>
			<g>
				<g>
					<path class="st2" d="M1885.65,3266.12c-56.79-8.51-94.21-9.41-154.43,0.56"/>
				</g>
				<g>
					<path class="st1" d="M1884.29,3275.21c-51.06-5.41-100.34-2.55-150.06,9.61c-25.23,4.74-31.58-32.42-6.14-36.27
						c52.39-6.56,107.69-3.38,158.92,8.48C1898.17,3259.48,1895.69,3276.13,1884.29,3275.21L1884.29,3275.21z"/>
				</g>
			</g>
			<g>
				<g>
					<path class="st10" d="M951.19,980.87c-88.96,0-161.1,72.14-161.1,161.14c0,89.01,161.1,353.14,161.1,353.14
						s161.14-264.13,161.14-353.14C1112.34,1053.01,1040.2,980.87,951.19,980.87z M951.19,1082.57c16.92,0,32.37,6.44,44,17.01
						c0.04,0,0.04,0.05,0.04,0.05c13.15,11.91,21.38,29.19,21.38,48.37c0,36.09-29.24,65.42-65.42,65.42
						c-36.09,0-65.38-29.33-65.38-65.42c0-19.13,8.18-36.28,21.24-48.23C918.69,1089.05,934.18,1082.57,951.19,1082.57z"/>
				</g>
				<g>
					<path class="st11" d="M1029.35,1164.22c0,43.12-34.94,78.11-78.16,78.11c-43.13,0-78.07-34.99-78.07-78.11
						c0-26.71,13.42-50.34,33.93-64.46c-13.06,11.95-21.24,29.1-21.24,48.23c0,36.09,29.29,65.42,65.38,65.42
						c36.18,0,65.42-29.33,65.42-65.42c0-19.17-8.23-36.46-21.38-48.37C1015.83,1113.74,1029.35,1137.42,1029.35,1164.22z"/>
				</g>
				<g>
					<path class="st11" d="M1109.12,1109.79c-66.85,141.47-83.37,222.67-157.92,222.67s-91.03-81.2-157.88-222.62
						c-2.11,10.39-3.22,21.15-3.22,32.18c0,89.01,161.1,353.14,161.1,353.14s161.14-264.13,161.14-353.14
						C1112.34,1130.98,1111.23,1120.18,1109.12,1109.79z"/>
				</g>
				<g class="st7">
					<path class="st2" d="M951.19,980.87c-88.96,0-161.1,72.14-161.1,161.14c0,4.78,0.46,10.07,1.33,15.82
						c10.3-79.12,77.93-140.18,159.76-140.18c81.88,0,149.51,61.06,159.81,140.18c0.87-5.75,1.33-11.03,1.33-15.82
						C1112.34,1053.01,1040.2,980.87,951.19,980.87z"/>
				</g>
				<g>
					<path class="st1" d="M951.23,1513.51c-6.41,0-12.36-3.34-15.7-8.81c-16.77-27.49-163.83-271.17-163.83-362.69
						c0-98.99,80.53-179.52,179.53-179.52c98.99,0,179.52,80.53,179.52,179.52c0,91.52-147.06,335.2-163.82,362.69
						C963.59,1510.17,957.64,1513.51,951.23,1513.51z M951.23,999.27c-78.71,0-142.75,64.03-142.75,142.74
						c0,61.64,91.97,230.88,142.75,317.27c50.77-86.39,142.74-255.63,142.74-317.27C1093.97,1063.3,1029.94,999.27,951.23,999.27z"
						/>
				</g>
				<g>
					<path class="st1" d="M951.23,1227.18c-43.67,0-79.2-35.53-79.2-79.2c0-43.67,35.53-79.2,79.2-79.2
						c43.67,0,79.2,35.53,79.2,79.2C1030.43,1191.65,994.9,1227.18,951.23,1227.18z M951.23,1096.36
						c-28.46,0-51.62,23.16-51.62,51.62s23.15,51.61,51.62,51.61c28.46,0,51.61-23.15,51.61-51.61S979.69,1096.36,951.23,1096.36z"
						/>
				</g>
			</g>
			<g>
				<path class="st1" d="M2557.2,2523.18c-2.33,0-4.69-0.59-6.85-1.83c-6.61-3.79-8.89-12.23-5.1-18.83
					c29.69-51.71,37.71-103.51,23.82-153.96c-29.57-107.45-148.13-175.21-149.33-175.87c-6.64-3.74-8.99-12.14-5.26-18.78
					s12.14-8.99,18.78-5.26c5.28,2.97,129.81,74.18,162.4,192.6c15.91,57.8,7,116.68-26.49,175.01
					C2566.63,2520.7,2561.98,2523.18,2557.2,2523.18z"/>
			</g>
			<g>
				
					<ellipse transform="matrix(0.6611 -0.7503 0.7503 0.6611 -882.3571 1848.3522)" class="st2" cx="1604.95" cy="1900.95" rx="34.67" ry="44.66"/>
			</g>
			<g>
				
					<ellipse transform="matrix(0.6611 -0.7503 0.7503 0.6611 -882.357 1848.347)" class="st1" cx="1604.95" cy="1900.95" rx="24.67" ry="31.78"/>
			</g>
		</g>
	</g>
</g>
</svg>
