<svg xmlns="http://www.w3.org/2000/svg" version="1.1" xmlns:xlink="http://www.w3.org/1999/xlink" xmlns:svgjs="http://svgjs.com/svgjs" width="512" height="512" x="0" y="0" viewBox="0 0 512 512" style="enable-background:new 0 0 512 512" xml:space="preserve"><g><g><g><path d="m283.545 447.081c-4.268 0-7.726-3.459-7.726-7.726v-118.351l-85.606-85.711c-1.447-1.449-2.26-3.412-2.26-5.46v-211.137c0-4.268 3.459-7.726 7.726-7.726s7.726 3.459 7.726 7.726v207.94l85.606 85.711c1.447 1.449 2.26 3.412 2.26 5.46v121.548c.001 4.268-3.458 7.726-7.726 7.726z" fill="#E643DE" data-original="#e643de"></path><path d="m407.792 501.03c-1.979 0-3.958-.756-5.467-2.267l-29.917-29.954c-1.447-1.449-2.26-3.412-2.26-5.46v-144.6l-179.217-178.466h-73.782c-2.051 0-4.017-.815-5.467-2.267l-98.473-98.588c-3.015-3.019-3.013-7.91.007-10.927 3.02-3.014 7.911-3.013 10.927.007l96.211 96.322h73.769c2.044 0 4.004.81 5.452 2.252l183.754 182.984c1.456 1.45 2.275 3.421 2.275 5.475v144.613l27.657 27.691c3.015 3.019 3.012 7.911-.007 10.927-1.511 1.505-3.486 2.258-5.462 2.258z" fill="#9378CF" data-original="#9378cf"></path></g><path d="m486.131 233.571h-34.106c-2.051 0-4.017.815-5.467 2.267l-71.886 71.976h-263.738l-85.784-86.477c-3.005-3.028-7.897-3.049-10.927-.043-3.03 3.005-3.049 7.896-.044 10.927l88.051 88.762c1.451 1.462 3.426 2.285 5.485 2.285h270.16c.255 0 .509-.014.762-.038.117-.012.231-.033.347-.05.134-.019.268-.035.4-.061s.261-.063.391-.095c.114-.029.23-.054.343-.088.128-.039.251-.087.376-.132.113-.04.226-.077.337-.123.119-.049.233-.107.348-.162.112-.053.226-.103.336-.162.114-.061.223-.131.333-.197.105-.063.212-.123.315-.191.128-.086.249-.181.372-.274.078-.059.159-.113.235-.176.199-.163.391-.336.572-.518l71.885-71.974h30.902c4.268 0 7.726-3.459 7.726-7.726s-3.457-7.73-7.724-7.73z" fill="#FFC517" data-original="#ffc517"></path><g fill="#E4E4F5"><path d="m93.061 44.747h-27.25c-4.267 0-7.726-3.459-7.726-7.726s3.459-7.726 7.726-7.726h27.25c4.267 0 7.726 3.459 7.726 7.726s-3.459 7.726-7.726 7.726z" fill="#E4E4F5" data-original="#e4e4f5"></path><path d="m126.545 74.693h-27.25c-4.267 0-7.726-3.459-7.726-7.726 0-4.268 3.459-7.726 7.726-7.726h27.25c4.267 0 7.726 3.459 7.726 7.726.001 4.267-3.459 7.726-7.726 7.726z" fill="#E4E4F5" data-original="#e4e4f5"></path><path d="m156.064 104.639h-27.251c-4.267 0-7.726-3.459-7.726-7.726s3.459-7.726 7.726-7.726h27.251c4.267 0 7.726 3.459 7.726 7.726s-3.459 7.726-7.726 7.726z" fill="#E4E4F5" data-original="#e4e4f5"></path><path d="m315.846 192.339h-27.25c-4.268 0-7.726-3.459-7.726-7.726 0-4.268 3.459-7.726 7.726-7.726h27.25c4.268 0 7.726 3.459 7.726 7.726s-3.458 7.726-7.726 7.726z" fill="#E4E4F5" data-original="#e4e4f5"></path><path d="m347.624 158.979h-27.251c-4.268 0-7.726-3.459-7.726-7.726s3.459-7.726 7.726-7.726h27.251c4.268 0 7.726 3.459 7.726 7.726s-3.459 7.726-7.726 7.726z" fill="#E4E4F5" data-original="#e4e4f5"></path><path d="m354.421 225.699h-27.251c-4.268 0-7.726-3.459-7.726-7.726s3.459-7.726 7.726-7.726h27.251c4.268 0 7.726 3.459 7.726 7.726s-3.459 7.726-7.726 7.726z" fill="#E4E4F5" data-original="#e4e4f5"></path><path d="m340.796 371.838h-27.251c-4.268 0-7.726-3.459-7.726-7.726s3.459-7.726 7.726-7.726h27.251c4.268 0 7.726 3.459 7.726 7.726s-3.459 7.726-7.726 7.726z" fill="#E4E4F5" data-original="#e4e4f5"></path><path d="m268.588 249.132h-27.251c-4.267 0-7.726-3.459-7.726-7.726 0-4.268 3.459-7.726 7.726-7.726h27.251c4.268 0 7.726 3.459 7.726 7.726s-3.459 7.726-7.726 7.726z" fill="#E4E4F5" data-original="#e4e4f5"></path><path d="m298.2 277.765h-27.249c-4.268 0-7.726-3.459-7.726-7.726s3.459-7.726 7.726-7.726h27.249c4.268 0 7.726 3.459 7.726 7.726s-3.458 7.726-7.726 7.726z" fill="#E4E4F5" data-original="#e4e4f5"></path><path d="m91.879 244.742h-27.25c-4.267 0-7.726-3.459-7.726-7.726s3.459-7.726 7.726-7.726h27.25c4.267 0 7.726 3.459 7.726 7.726s-3.459 7.726-7.726 7.726z" fill="#E4E4F5" data-original="#e4e4f5"></path><path d="m121.492 273.376h-27.25c-4.267 0-7.726-3.459-7.726-7.726s3.459-7.726 7.726-7.726h27.25c4.267 0 7.726 3.459 7.726 7.726s-3.458 7.726-7.726 7.726z" fill="#E4E4F5" data-original="#e4e4f5"></path><path d="m340.796 405.774h-27.251c-4.268 0-7.726-3.459-7.726-7.726s3.459-7.726 7.726-7.726h27.251c4.268 0 7.726 3.459 7.726 7.726s-3.459 7.726-7.726 7.726z" fill="#E4E4F5" data-original="#e4e4f5"></path><path d="m254.741 64.485h-27.25c-4.267 0-7.726-3.459-7.726-7.726s3.459-7.726 7.726-7.726h27.25c4.267 0 7.726 3.459 7.726 7.726s-3.459 7.726-7.726 7.726z" fill="#E4E4F5" data-original="#e4e4f5"></path><path d="m400.617 64.485h-27.249c-4.268 0-7.726-3.459-7.726-7.726s3.459-7.726 7.726-7.726h27.249c4.268 0 7.726 3.459 7.726 7.726s-3.459 7.726-7.726 7.726z" fill="#E4E4F5" data-original="#e4e4f5"></path><path d="m169.689 371.838h-27.25c-4.267 0-7.726-3.459-7.726-7.726s3.459-7.726 7.726-7.726h27.25c4.267 0 7.726 3.459 7.726 7.726s-3.459 7.726-7.726 7.726z" fill="#E4E4F5" data-original="#e4e4f5"></path><path d="m254.741 98.531h-27.25c-4.267 0-7.726-3.459-7.726-7.726 0-4.268 3.459-7.726 7.726-7.726h27.25c4.267 0 7.726 3.459 7.726 7.726s-3.459 7.726-7.726 7.726z" fill="#E4E4F5" data-original="#e4e4f5"></path><path d="m434.961 405.774h-27.25c-4.268 0-7.726-3.459-7.726-7.726s3.459-7.726 7.726-7.726h27.25c4.268 0 7.726 3.459 7.726 7.726s-3.459 7.726-7.726 7.726z" fill="#E4E4F5" data-original="#e4e4f5"></path><path d="m434.961 439.708h-27.25c-4.268 0-7.726-3.459-7.726-7.726s3.459-7.726 7.726-7.726h27.25c4.268 0 7.726 3.459 7.726 7.726s-3.459 7.726-7.726 7.726z" fill="#E4E4F5" data-original="#e4e4f5"></path><path d="m78.254 447.485h-27.25c-4.267 0-7.726-3.459-7.726-7.726s3.459-7.726 7.726-7.726h27.25c4.267 0 7.726 3.459 7.726 7.726s-3.459 7.726-7.726 7.726z" fill="#E4E4F5" data-original="#e4e4f5"></path><path d="m383.94 259.059h-27.25c-4.268 0-7.726-3.459-7.726-7.726 0-4.268 3.459-7.726 7.726-7.726h27.25c4.268 0 7.726 3.459 7.726 7.726 0 4.268-3.459 7.726-7.726 7.726z" fill="#E4E4F5" data-original="#e4e4f5"></path><path d="m475.967 305.84h-27.249c-4.268 0-7.726-3.459-7.726-7.726s3.459-7.726 7.726-7.726h27.249c4.268 0 7.726 3.459 7.726 7.726s-3.459 7.726-7.726 7.726z" fill="#E4E4F5" data-original="#e4e4f5"></path></g><path d="m11.939 484.233-.989-92.083c-.027-2.066.775-4.058 2.227-5.529s3.432-2.299 5.499-2.299h84.512v-68.782c0-2.047.813-4.011 2.26-5.46l224.845-225.123v-50.619c0-4.268 3.459-7.726 7.726-7.726s7.726 3.459 7.726 7.726v53.816c0 2.047-.813 4.011-2.26 5.46l-224.845 225.123v73.311c0 4.268-3.459 7.726-7.726 7.726h-84.41l.886 84.255c.056 4.268-3.358 7.772-7.625 7.827-.034.001-7.771-3.391-7.826-7.623z" fill="#0DD1CF" data-original="#0dd1cf"></path><path d="m195.68 151.252c-10.298 0-18.676-8.388-18.676-18.697s8.378-18.696 18.676-18.696 18.676 8.387 18.676 18.696-8.378 18.697-18.676 18.697z" fill="#FF6EF9" data-original="#ff6ef9"></path><path d="m377.875 334.236c-10.298 0-18.676-8.387-18.676-18.696s8.378-18.696 18.676-18.696c10.297 0 18.675 8.387 18.675 18.696s-8.378 18.696-18.675 18.696z" fill="#A087D4" data-original="#a087d4"></path><path d="m195.68 37.393c-10.298 0-18.676-8.388-18.676-18.697s8.378-18.696 18.676-18.696 18.676 8.387 18.676 18.696-8.378 18.697-18.676 18.697z" fill="#FF6EF9" data-original="#ff6ef9"></path><path d="m18.676 52.664c-10.298 0-18.676-8.387-18.676-18.696s8.378-18.697 18.676-18.697 18.676 8.388 18.676 18.697-8.378 18.696-18.676 18.696z" fill="#A087D4" data-original="#a087d4"></path><path d="m407.792 512c-10.297 0-18.675-8.387-18.675-18.696s8.378-18.697 18.675-18.697c10.298 0 18.676 8.388 18.676 18.697s-8.378 18.696-18.676 18.696z" fill="#A087D4" data-original="#a087d4"></path><path d="m283.545 463.686c-10.298 0-18.676-8.387-18.676-18.696s8.378-18.697 18.676-18.697c10.297 0 18.675 8.388 18.675 18.697s-8.377 18.696-18.675 18.696z" fill="#FF6EF9" data-original="#ff6ef9"></path><path d="m283.545 334.236c-10.298 0-18.676-8.387-18.676-18.696s8.378-18.696 18.676-18.696c10.297 0 18.675 8.387 18.675 18.696s-8.377 18.696-18.675 18.696z" fill="#FFF245" data-original="#fff245"></path><path d="m493.325 259.787c-10.298 0-18.676-8.387-18.676-18.696s8.378-18.696 18.676-18.696c10.297 0 18.675 8.387 18.675 18.696s-8.378 18.696-18.675 18.696z" fill="#FFF245" data-original="#fff245"></path><ellipse cx="110.914" cy="315.54" fill="#FFF245" rx="18.676" ry="18.696" data-original="#fff245"></ellipse><ellipse cx="18.676" cy="226.779" fill="#FFF245" rx="18.676" ry="18.696" data-original="#fff245"></ellipse><ellipse cx="18.676" cy="392.049" fill="#05FFFC" rx="18.676" ry="18.696" data-original="#05fffc"></ellipse><ellipse cx="18.676" cy="493.304" fill="#05FFFC" rx="18.676" ry="18.696" data-original="#05fffc"></ellipse><ellipse cx="195.68" cy="229.833" fill="#05FFFC" rx="18.676" ry="18.696" data-original="#05fffc"></ellipse><path d="m338.019 106.85c-10.297 0-18.675-8.388-18.675-18.697s8.378-18.696 18.675-18.696c10.298 0 18.676 8.387 18.676 18.696s-8.378 18.697-18.676 18.697z" fill="#05FFFC" data-original="#05fffc"></path><path d="m338.019 37.393c-10.297 0-18.675-8.388-18.675-18.697s8.377-18.696 18.675-18.696 18.676 8.387 18.676 18.696-8.378 18.697-18.676 18.697z" fill="#05FFFC" data-original="#05fffc"></path><path d="m434.961 371.838h-27.25c-4.268 0-7.726-3.459-7.726-7.726s3.459-7.726 7.726-7.726h27.25c4.268 0 7.726 3.459 7.726 7.726s-3.459 7.726-7.726 7.726z" fill="#E4E4F5" data-original="#e4e4f5"></path></g></g></svg>