<?xml version="1.0" encoding="utf-8"?>
<!-- Generator: Adobe Illustrator 25.2.1, SVG Export Plug-In . SVG Version: 6.00 Build 0)  -->
<svg version="1.1" id="Layer_1" xmlns:svgjs="http://svgjs.com/svgjs"
	 xmlns="http://www.w3.org/2000/svg" xmlns:xlink="http://www.w3.org/1999/xlink" x="0px" y="0px" viewBox="0 0 512 512"
	 style="enable-background:new 0 0 512 512;" xml:space="preserve">
<style type="text/css">
	.st0{fill:#0377C7;}
</style>
<g>
	<g>
		<path class="st0" d="M296,92.7c-6.2,6.2-6.2,16.4,0,22.6l20.7,20.7c6.2,6.2,16.4,6.2,22.6,0l20.7-20.7V400c0,26.5-21.5,48-48,48
			c-13.2,0-24,10.8-24,24v16c0,13.2,10.8,24,24,24c61.8,0,112-50.2,112-112V115.3l20.7,20.7c6.2,6.2,16.4,6.2,22.6,0l20.7-20.7
			c6.2-6.2,6.2-16.4,0-22.6L397.7,2.3c-3.1-3.1-8.2-3.1-11.3,0L296,92.7z"/>
		<path class="st0" d="M216,419.3c6.2-6.2,6.2-16.4,0-22.6L195.3,376c-6.3-6.3-16.4-6.3-22.6,0L152,396.7V112c0-26.5,21.5-48,48-48
			c13.2,0,24-10.8,24-24V24c0-13.2-10.8-24-24-24C138.2,0,88,50.2,88,112v284.7L67.3,376c-6.3-6.3-16.4-6.3-22.6,0L24,396.7
			c-6.2,6.2-6.2,16.4,0,22.6l90.3,90.4c3.1,3.1,8.2,3.1,11.3,0L216,419.3z"/>
	</g>
</g>
</svg>
