<?xml version="1.0" encoding="iso-8859-1"?>
<!-- Generator: Adobe Illustrator 19.0.0, SVG Export Plug-In . SVG Version: 6.00 Build 0)  -->
<svg version="1.1" id="Capa_1" xmlns="http://www.w3.org/2000/svg" xmlns:xlink="http://www.w3.org/1999/xlink" x="0px" y="0px"
	 viewBox="0 0 512 512" style="enable-background:new 0 0 512 512;" xml:space="preserve">
<path style="fill:#2196F3;" d="M368,0h128c8.837,0,16,7.163,16,16v96c0,8.837-7.163,16-16,16H368c-8.837,0-16-7.163-16-16V16
	C352,7.163,359.163,0,368,0z"/>
<g>
	<circle style="fill:#B0BEC5;" cx="112" cy="464" r="48"/>
	<circle style="fill:#B0BEC5;" cx="368" cy="272" r="48"/>
</g>
<path style="fill:#2196F3;" d="M112,96C50.144,96,0,146.144,0,208c0,57.6,89.856,159.264,100.096,170.688
	c5.904,6.574,16.02,7.118,22.595,1.213c0.426-0.382,0.831-0.787,1.213-1.213C134.144,367.264,224,265.6,224,208
	C224,146.144,173.856,96,112,96z"/>
<circle style="fill:#FAFAFA;" cx="112" cy="208" r="48"/>
<path d="M112,384c-4.542-0.001-8.87-1.932-11.904-5.312C89.856,367.264,0,265.6,0,208C0,146.144,50.144,96,112,96
	s112,50.144,112,112c0,57.6-89.856,159.264-100.096,170.688C120.87,382.068,116.542,383.999,112,384z M112,128
	c-44.183,0-80,35.817-80,80c0,30.528,45.056,94.144,80,135.584c34.944-41.44,80-105.088,80-135.584C192,163.817,156.183,128,112,128
	z"/>
<path d="M112,256c-26.51,0-48-21.49-48-48s21.49-48,48-48s48,21.49,48,48S138.51,256,112,256z M112,192c-8.837,0-16,7.163-16,16
	s7.163,16,16,16s16-7.163,16-16S120.837,192,112,192z"/>
<path d="M112,512c-26.51,0-48-21.49-48-48s21.49-48,48-48s48,21.49,48,48S138.51,512,112,512L112,512z M112,448
	c-8.837,0-16,7.163-16,16s7.163,16,16,16s16-7.163,16-16S120.837,448,112,448z"/>
<path d="M368,320c-26.51,0-48-21.49-48-48s21.49-48,48-48s48,21.49,48,48S394.51,320,368,320z M368,256c-8.837,0-16,7.163-16,16
	s7.163,16,16,16s16-7.163,16-16S376.837,256,368,256z"/>
<path d="M368,192c-8.837,0-16-7.163-16-16V16c0-8.837,7.163-16,16-16s16,7.163,16,16v160C384,184.837,376.837,192,368,192z"/>
<path d="M496,128H368c-8.837,0-16-7.163-16-16V16c0-8.837,7.163-16,16-16h128c8.837,0,16,7.163,16,16v96
	C512,120.837,504.837,128,496,128z M384,96h96V32h-96V96z"/>
<path d="M448,480H144c-8.837,0-16-7.163-16-16s7.163-16,16-16h304c17.673,0,32-14.327,32-32s-14.327-32-32-32H288
	c-35.346,0-64-28.654-64-64s28.654-64,64-64h48c8.837,0,16,7.163,16,16s-7.163,16-16,16h-48c-17.673,0-32,14.327-32,32
	s14.327,32,32,32h160c35.346,0,64,28.654,64,64S483.346,480,448,480z"/>
<g>
</g>
<g>
</g>
<g>
</g>
<g>
</g>
<g>
</g>
<g>
</g>
<g>
</g>
<g>
</g>
<g>
</g>
<g>
</g>
<g>
</g>
<g>
</g>
<g>
</g>
<g>
</g>
<g>
</g>
</svg>
