<svg xmlns="http://www.w3.org/2000/svg" version="1.1" xmlns:xlink="http://www.w3.org/1999/xlink" xmlns:svgjs="http://svgjs.com/svgjs" width="512" height="512" x="0" y="0" viewBox="0 0 512 512" style="enable-background:new 0 0 512 512" xml:space="preserve"><g><g id="_x32_0_I_Am_Here"><g><path d="m152.117 73.301v-35.636c0-17.261 13.968-31.282 31.282-31.282 17.186 0 31.282 13.98 31.282 31.282v35.637c0 17.314-14.021 31.335-31.282 31.335-17.307-.001-31.282-14.036-31.282-31.336z" fill="#FFFFFF" data-original="#ffffff"></path><path d="m258.018 208.466v105.689c0 9.56-7.754 17.314-17.314 17.314-4.78 0-9.135-1.965-12.215-5.045-3.187-3.187-5.099-7.489-5.099-12.268v171.439c0 5.523-2.231 10.516-5.842 14.18-3.611 3.611-8.604 5.842-14.127 5.842-11.047 0-20.022-8.976-20.022-20.023 0 5.523-2.231 10.516-5.895 14.18-3.611 3.611-8.604 5.842-14.127 5.842-11.047 0-19.969-8.976-19.969-20.023v-171.437c0 9.56-7.754 17.314-17.314 17.314-4.78 0-9.135-1.965-12.215-5.045-3.186-3.187-5.098-7.489-5.098-12.268v-103.566c0-40.151 30.857-74.726 71.008-76.585 42.805-2.018 78.229 32.079 78.229 74.46z" fill="#FFFFFF" data-original="#ffffff"></path><path d="m329.133 309.535c-40.895 0-74.035 33.194-74.035 74.089 0 29.901 17.739 55.66 43.285 67.344l30.751 54.65 30.804-54.65c25.546-11.684 43.285-37.443 43.285-67.344-.002-40.896-33.196-74.089-74.09-74.089zm0 109.46c-19.544 0-35.425-15.827-35.425-35.371 0-19.598 15.88-35.424 35.425-35.424 19.544 0 35.424 15.827 35.424 35.424 0 19.544-15.88 35.371-35.424 35.371z" fill="#94C1FF" data-original="#94c1ff"></path><g fill="#116FFF"><path d="m263.329 232.1c0-2.933-2.375-5.311-5.311-5.311s-5.311 2.378-5.311 5.311v17.792c0 2.933 2.375 5.311 5.311 5.311s5.311-2.378 5.311-5.311z" fill="#116FFF" data-original="#116fff"></path><path d="m223.392 211.44c-2.936 0-5.311 2.378-5.311 5.311v97.406c0 12.612 10.262 22.624 22.624 22.624 12.474 0 22.624-10.15 22.624-22.624v-17.792c0-2.933-2.375-5.311-5.311-5.311s-5.311 2.378-5.311 5.311v17.792c0 6.618-5.384 12.002-12.002 12.002-6.558 0-12.002-5.311-12.002-12.002v-97.406c0-2.933-2.375-5.311-5.311-5.311z" fill="#116FFF" data-original="#116fff"></path><path d="m103.469 210.592v103.565c0 12.612 10.262 22.624 22.624 22.624 12.474 0 22.624-10.15 22.624-22.624v-97.406c0-2.933-2.375-5.311-5.311-5.311s-5.311 2.378-5.311 5.311v97.406c0 6.618-5.384 12.002-12.002 12.002-6.558 0-12.002-5.311-12.002-12.002v-103.565c0-38.258 28.967-69.57 65.947-71.281 39.692-1.911 72.668 29.661 72.668 69.155v2.285c0 2.933 2.375 5.311 5.311 5.311s5.311-2.378 5.311-5.311v-2.285c0-45.766-38.256-81.937-83.783-79.766-42.659 1.975-76.076 37.946-76.076 81.892z" fill="#116FFF" data-original="#116fff"></path><path d="m220.005 73.32v-35.637c0-20.189-16.426-36.612-36.612-36.612s-36.612 16.423-36.612 36.612v35.637c0 20.189 16.426 36.612 36.612 36.612s36.612-16.423 36.612-36.612zm-62.601 0v-35.637c0-14.33 11.659-25.99 25.99-25.99 14.33 0 25.99 11.659 25.99 25.99v35.637c0 14.33-11.659 25.99-25.99 25.99s-25.99-11.66-25.99-25.99z" fill="#116FFF" data-original="#116fff"></path><path d="m369.87 383.622c0-22.46-18.277-40.735-40.74-40.735s-40.735 18.275-40.735 40.735c0 22.432 18.272 40.683 40.735 40.683s40.74-18.251 40.74-40.683zm-40.74 30.061c-16.602 0-30.113-13.485-30.113-30.061 0-16.605 13.511-30.113 30.113-30.113 16.607 0 30.118 13.508 30.118 30.113 0 16.576-13.511 30.061-30.118 30.061z" fill="#116FFF" data-original="#116fff"></path><path d="m425.952 505.617c0-2.933-2.375-5.311-5.311-5.311h-82.42l25.513-45.258c27.271-13.213 44.796-41.057 44.796-71.426 0-43.779-35.621-79.398-79.401-79.398-43.748 0-79.344 35.618-79.344 79.398 0 30.37 17.525 58.214 44.801 71.426l25.463 45.258h-96.123c3.063-4.292 4.776-9.367 4.776-14.712v-137.022c0-2.933-2.375-5.311-5.311-5.311s-5.311 2.378-5.311 5.311v137.023c0 8.022-6.403 14.712-14.662 14.712-8.112 0-14.709-6.6-14.709-14.712v-138.989c0-2.933-2.375-5.311-5.311-5.311s-5.311 2.378-5.311 5.311v138.989c0 7.999-6.474 14.712-14.714 14.712-8.081 0-14.657-6.6-14.657-14.712v-137.023c0-2.933-2.375-5.311-5.311-5.311s-5.311 2.378-5.311 5.311v137.023c0 5.498 1.802 10.555 4.781 14.712h-51.516c-2.936 0-5.311 2.378-5.311 5.311s2.375 5.311 5.311 5.311h329.282c2.936-.001 5.311-2.379 5.311-5.312zm-125.358-59.479c-24.413-11.167-40.185-35.704-40.185-62.516 0-37.924 30.829-68.776 68.722-68.776 37.924 0 68.779 30.852 68.779 68.776 0 26.809-15.772 51.349-40.18 62.516-1.022.467-1.867 1.242-2.417 2.22l-26.176 46.435-26.125-46.43c-.551-.98-1.396-1.758-2.418-2.225z" fill="#116FFF" data-original="#116fff"></path></g></g></g></g></svg>