<svg xmlns="http://www.w3.org/2000/svg" version="1.1" xmlns:xlink="http://www.w3.org/1999/xlink" xmlns:svgjs="http://svgjs.com/svgjs" width="512" height="512" x="0" y="0" viewBox="0 0 512 512" style="enable-background:new 0 0 512 512" xml:space="preserve"><g><g id="e"><path d="m501.05 103.13c-9.63-43.48-51.78-83.31-95.38-91.77-26.56-5.31-100.66-11.87-149.67-11.33-49.01-.54-123.11 6.02-149.67 11.33-43.6 8.46-85.75 48.29-95.38 91.77-5.48 26.4-10.87 62.32-10.95 111.35.08 49.03 5.47 84.94 10.95 111.34 9.63 43.48 51.78 83.31 95.38 91.77 14.34 2.87 42.54 6.1 73.17 8.38 3.47 5.45 7.23 11.25 11.3 17.4 16.25 24.61 28.69 41.76 38.11 53.71 15.68 19.89 38.51 19.89 54.19 0 9.42-11.95 21.85-29.1 38.11-53.71 4.07-6.16 7.82-11.95 11.3-17.4 30.63-2.28 58.83-5.51 73.18-8.38 43.6-8.46 85.75-48.29 95.38-91.77 5.48-26.4 10.87-62.31 10.95-111.34-.08-49.03-5.47-84.94-10.95-111.34zm-216.78 260c-1.08 6.09-6.6 11.61-12.69 12.69-3.69.61-8.72 1.19-15.59 1.2-6.86 0-11.89-.58-15.59-1.2-6.09-1.08-11.61-6.6-12.69-12.69-.61-3.69-1.19-8.72-1.2-15.59 0-6.86.58-11.89 1.2-15.59 1.08-6.09 6.6-11.61 12.69-12.69 3.69-.61 8.72-1.19 15.59-1.2 6.86 0 11.89.58 15.59 1.2 6.09 1.08 11.61 6.6 12.69 12.69.61 3.69 1.19 8.72 1.2 15.59 0 6.86-.58 11.89-1.2 15.59zm60.88-163.79c-7.72 10.92-19.29 20.89-36.41 31.36-21.67 13.36-25.14 18.85-25.14 29.6v4.25c0 15.24-12.4 27.64-27.64 27.64s-27.64-12.4-27.64-27.64v-9.85c0-12.68 3.17-23.44 9.69-32.89 6.32-9.16 15.79-17.3 29.84-25.65 25.89-15.23 30.63-23.78 30.63-35.13 0-14.26-12.15-23.48-30.94-23.48-20.6 0-34.01 9.36-39.86 27.83-3.86 12.18-15.14 20.36-28.06 20.36-.72 0-1.44-.03-2.16-.08-9.12-.66-17.29-5.39-22.41-12.98-5.07-7.51-6.4-16.74-3.65-25.33 6.3-19.64 18.38-35.98 34.93-47.26 16.76-11.42 37.93-17.45 61.2-17.45s46.6 7.71 63.16 21.71c17.04 14.41 26.43 34.27 26.43 55.94 0 14.88-3.91 27.66-11.97 39.05z" fill="#000000" data-original="#000000"></path></g></g></svg>