<svg xmlns="http://www.w3.org/2000/svg" version="1.1" xmlns:xlink="http://www.w3.org/1999/xlink" xmlns:svgjs="http://svgjs.com/svgjs" width="512" height="512" x="0" y="0" viewBox="0 0 512 512" style="enable-background:new 0 0 512 512" xml:space="preserve"><g><g><g><path d="m61.793 0c-34.066 0-61.793 27.719-61.793 61.793v158.897c0 4.864 3.955 8.828 8.828 8.828h105.931c4.873 0 8.828-3.964 8.828-8.828v-158.897c-.001-34.074-27.728-61.793-61.794-61.793zm0 203.034c-19.5 0-35.31-15.81-35.31-35.31s15.81-35.31 35.31-35.31 35.31 15.81 35.31 35.31-15.81 35.31-35.31 35.31zm0-105.931c-19.5 0-35.31-15.81-35.31-35.31s15.81-35.31 35.31-35.31 35.31 15.81 35.31 35.31-15.81 35.31-35.31 35.31z" fill="#000000" data-original="#000000"></path><path d="m300.138 459.034h141.241v17.655h-141.241z" fill="#000000" data-original="#000000"></path><path d="m264.828 388.414h17.655v123.586h-17.655z" fill="#000000" data-original="#000000"></path><path d="m300.138 494.345h141.241v17.655h-141.241z" fill="#000000" data-original="#000000"></path><path d="m97.103 300.138h-70.62c-4.873 0-8.828 3.964-8.828 8.828v70.621c0 4.864 3.955 8.828 8.828 8.828h70.621c4.873 0 8.828-3.964 8.828-8.828v-70.621c-.001-4.864-3.956-8.828-8.829-8.828zm-35.31 61.793c-9.754 0-17.655-7.901-17.655-17.655s7.901-17.655 17.655-17.655 17.655 7.901 17.655 17.655-7.9 17.655-17.655 17.655z" fill="#000000" data-original="#000000"></path><path d="m44.138 247.172h35.31v35.31h-35.31z" fill="#000000" data-original="#000000"></path><path d="m397.241 52.966h17.655v17.655h-17.655z" fill="#000000" data-original="#000000"></path><path d="m361.931 52.966h17.655v17.655h-17.655z" fill="#000000" data-original="#000000"></path><path d="m264.828 229.517v-70.621c0-9.737-7.918-17.655-17.655-17.655h-17.134c-.327 2.904-.521 5.844-.521 8.828v97.103h17.655c9.736 0 17.655-7.918 17.655-17.655z" fill="#000000" data-original="#000000"></path><path d="m40.766 476.69-17.655 35.31h77.365l-17.656-35.31z" fill="#000000" data-original="#000000"></path><path d="m44.138 406.069h35.31v52.966h-35.31z" fill="#000000" data-original="#000000"></path><path d="m326.621 52.966h17.655v17.655h-17.655z" fill="#000000" data-original="#000000"></path><circle cx="441.379" cy="317.793" r="17.655" fill="#000000" data-original="#000000"></circle><circle cx="494.345" cy="317.793" r="17.655" fill="#000000" data-original="#000000"></circle><circle cx="300.138" cy="317.793" r="17.655" fill="#000000" data-original="#000000"></circle><path d="m397.241 141.241h-52.966c-14.601 0-26.483 11.882-26.483 26.483v119.667c10.505 6.126 17.655 17.39 17.655 30.402h70.621c0-13.012 7.15-24.276 17.655-30.402v-119.667c.001-14.601-11.881-26.483-26.482-26.483zm0 61.793h-52.966v-35.31h52.966z" fill="#000000" data-original="#000000"></path><path d="m459.034 229.517v-70.621c0-19.474 15.837-35.31 35.31-35.31h13.021c-10.937-30.808-40.298-52.966-74.814-52.966 0 9.737-7.918 17.655-17.655 17.655h-88.276c-9.737 0-17.655-7.918-17.655-17.655-34.516 0-63.876 22.157-74.814 52.966h13.021c19.474 0 35.31 15.837 35.31 35.31v70.621c0 19.474-15.837 35.31-35.31 35.31h-17.655v22.563c5.217-3.037 11.193-4.908 17.655-4.908 10.602 0 20.003 4.785 26.483 12.2 6.479-7.415 15.881-12.2 26.483-12.2v-114.758c0-24.338 19.8-44.138 44.138-44.138h52.966c24.338 0 44.138 19.8 44.138 44.138v114.759c10.602 0 20.003 4.785 26.483 12.2 6.479-7.415 15.881-12.2 26.483-12.2 6.462 0 12.438 1.871 17.655 4.908v-22.563h-17.655c-19.475 0-35.312-15.837-35.312-35.311z" fill="#000000" data-original="#000000"></path><path d="m511.479 141.241h-17.134c-9.737 0-17.655 7.918-17.655 17.655v70.621c0 9.737 7.918 17.655 17.655 17.655h17.655v-97.103c0-2.984-.194-5.923-.521-8.828z" fill="#000000" data-original="#000000"></path><path d="m300.138 423.724h141.241v17.655h-141.241z" fill="#000000" data-original="#000000"></path><path d="m467.862 340.904c-6.479 7.415-15.881 12.2-26.483 12.2-13.012 0-24.276-7.15-30.402-17.655h-80.446c-6.126 10.505-17.39 17.655-30.402 17.655-10.602 0-20.003-4.785-26.483-12.2-6.471 7.415-15.872 12.2-26.474 12.2-6.294 0-12.12-1.792-17.24-4.687 2.013 12.632 12.879 22.343 26.068 22.343h229.517c13.188 0 24.055-9.71 26.068-22.343-5.12 2.895-10.946 4.687-17.24 4.687-10.602-.001-20.003-4.785-26.483-12.2z" fill="#000000" data-original="#000000"></path><path d="m459.034 388.414h17.655v123.586h-17.655z" fill="#000000" data-original="#000000"></path><circle cx="247.172" cy="317.793" r="17.655" fill="#000000" data-original="#000000"></circle><path d="m300.138 388.414h141.241v17.655h-141.241z" fill="#000000" data-original="#000000"></path></g></g></g></svg>